<?xml version="1.0" encoding="UTF-8"?>
<svg width="424px" height="377px" viewBox="0 0 424 377" version="1.1" xmlns="http://www.w3.org/2000/svg" xmlns:xlink="http://www.w3.org/1999/xlink">
    <!-- Generator: Sketch 50.2 (55047) - http://www.bohemiancoding.com/sketch -->
    <title>Vector Smart Object.ai</title>
    <desc>Created with Sketch.</desc>
    <defs>
        <polygon id="path-1" points="6.66251852e-05 0.8454 424.264 0.8454 424.264 378 6.66251852e-05 378"></polygon>
    </defs>
    <g id="Vector-Smart-Object.ai" stroke="none" stroke-width="1" fill="none" fill-rule="evenodd">
        <g id="Group-3" transform="translate(0.000000, -0.845000)">
            <mask id="mask-2" fill="white">
                <use xlink:href="#path-1"></use>
            </mask>
            <g id="Clip-2"></g>
            <path d="M180.3724,19.1814 L4.9684,322.9914 C-9.1476,347.4394 8.4964,378.0004 36.7264,378.0004 L387.5364,378.0004 C415.7674,378.0004 433.4114,347.4394 419.2964,322.9914 L243.8914,19.1814 C229.7754,-5.2666 194.4874,-5.2666 180.3724,19.1814" id="Fill-1" fill="#00D5FF" mask="url(#mask-2)"></path>
        </g>
        <path d="M194.1605,284.5107 C199.0975,279.5737 205.0905,277.1017 212.1335,277.1017 C219.1745,277.1017 225.1635,279.5737 230.1025,284.5107 C235.0415,289.4507 237.5135,295.4407 237.5135,302.4827 C237.5135,309.5247 235.0415,315.5167 230.1025,320.4547 C225.1635,325.3927 219.1745,327.8637 212.1335,327.8637 C205.0905,327.8637 199.0975,325.3927 194.1605,320.4547 C189.2215,315.5167 186.7515,309.5247 186.7515,302.4827 C186.7515,295.4407 189.2215,289.4507 194.1605,284.5107 M194.3065,122.9857 C199.3435,118.3407 205.2845,116.0167 212.1335,116.0167 C218.7825,116.0167 224.6755,118.3157 229.8105,122.9117 C234.9445,127.5107 237.5135,135.0887 237.5135,145.6517 C237.5135,148.9777 236.7065,153.9907 235.0915,160.6887 C233.4775,167.3897 230.5665,178.3677 226.3635,193.6247 C223.8185,202.8197 222.0825,210.4737 221.1545,216.5857 C220.2235,222.6987 218.7345,234.9967 216.6795,253.4817 L208.0245,253.4817 C205.1855,230.2057 203.2785,215.8287 202.3035,210.3497 C201.3235,204.8737 199.3685,197.1977 196.4345,187.3167 C192.7175,174.6997 190.3195,166.2897 189.2455,162.0837 C187.5815,155.5317 186.7515,150.3977 186.7515,146.6787 C186.7515,135.5287 189.2685,127.6317 194.3065,122.9857" id="Fill-4" fill="#FFFFFF"></path>
    </g>
</svg>