<svg width="1259px" height="586px" viewBox="0 0 1259 586" version="1.1" xmlns="http://www.w3.org/2000/svg" xmlns:xlink="http://www.w3.org/1999/xlink">
    <!-- Generator: Sketch 49.3 (51167) - http://www.bohemiancoding.com/sketch -->
    <title>bike-icon</title>
    <desc>Created with Sketch.</desc>
    <defs></defs>
    <g id="Page-1" stroke="none" stroke-width="1" fill="none" fill-rule="evenodd">
        <g id="bike-icon" transform="translate(0.000000, 1.000000)">
            <g id="lines" transform="translate(0.000000, 0.711000)" stroke="#1A4A4F" stroke-width="2">
                <path d="M2.5322,346.5639 L180.7742,168.3219" id="Stroke-6"></path>
                <path d="M1.2915,358.1254 L192.3355,167.0814" id="Stroke-8"></path>
                <path d="M0.7197,369.019 L203.2287,166.51" id="Stroke-10"></path>
                <path d="M30.8769,266.6127 L100.8229,196.6667" id="Stroke-1"></path>
                <path d="M19.2514,288.559 L122.7694,185.041" id="Stroke-2"></path>
                <path d="M12.3232,305.809 L140.0192,178.113" id="Stroke-3"></path>
                <path d="M7.7094,320.7436 L154.9544,173.4996" id="Stroke-4"></path>
                <path d="M4.5854,334.1889 L168.3994,170.3759" id="Stroke-5"></path>
                <path d="M319.5165,60.5434 L314.9335,65.1264" id="Stroke-13"></path>
                <path d="M213.5625,166.4975 L132.5425,247.5175" id="Stroke-14"></path>
                <path d="M0.707,379.353 L81.727,298.333" id="Stroke-15"></path>
                <path d="M223.4209,166.9604 L153.1559,237.2254" id="Stroke-17"></path>
                <path d="M1.1704,389.2104 L71.4344,318.9464" id="Stroke-18"></path>
                <path d="M326.4257,63.9555 L317.7807,72.6005" id="Stroke-20"></path>
                <path d="M332.3925,68.31 L321.7515,78.951" id="Stroke-21"></path>
                <path d="M2.0512,398.6508 L66.0872,334.6158" id="Stroke-22"></path>
                <path d="M232.8613,167.8412 L168.8253,231.8772" id="Stroke-24"></path>
                <path d="M241.9306,169.0932 L182.2246,228.7992" id="Stroke-25"></path>
                <path d="M338.3456,72.6782 L326.0066,85.0182" id="Stroke-26"></path>
                <path d="M3.3032,407.7201 L63.0092,348.0151" id="Stroke-27"></path>
                <path d="M344.3613,76.9838 L330.5453,90.7998" id="Stroke-29"></path>
                <path d="M250.666,170.6791 L194.206,227.1391" id="Stroke-30"></path>
                <path d="M4.8886,416.4565 L61.3486,359.9965" id="Stroke-31"></path>
                <path d="M350.4506,81.2153 L335.3786,96.2883" id="Stroke-32"></path>
                <path d="M6.811,424.8549 L60.683,370.9839" id="Stroke-33"></path>
                <path d="M259.0654,172.601 L205.1934,226.473" id="Stroke-34"></path>
                <path d="M267.186,174.8022 L215.404,226.5842" id="Stroke-35"></path>
                <path d="M9.0117,432.976 L60.7937,381.194" id="Stroke-36"></path>
                <path d="M356.6088,85.3784 L340.5388,101.4494" id="Stroke-37"></path>
                <path d="M275.0429,177.2661 L224.9899,227.3191" id="Stroke-38"></path>
                <path d="M362.8329,89.476 L346.0549,106.254" id="Stroke-39"></path>
                <path d="M11.476,440.8334 L61.528,390.7804" id="Stroke-40"></path>
                <path d="M369.2753,93.3549 L351.9643,110.6669" id="Stroke-41"></path>
                <path d="M14.2104,448.4194 L62.7984,399.8314" id="Stroke-42"></path>
                <path d="M282.6298,180.0004 L234.0418,228.5884" id="Stroke-43"></path>
                <path d="M376.6484,96.3032 L358.3394,114.6122" id="Stroke-44"></path>
                <path d="M289.9941,182.9575 L242.6251,230.3255" id="Stroke-45"></path>
                <path d="M17.1674,455.7846 L64.5354,408.4156" id="Stroke-46"></path>
                <path d="M297.1132,186.1596 L250.7822,232.4906" id="Stroke-47"></path>
                <path d="M20.3696,462.9037 L66.6996,416.5727" id="Stroke-48"></path>
                <path d="M384.9111,98.3618 L365.2701,118.0028" id="Stroke-49"></path>
                <path d="M23.7763,469.8178 L69.2363,424.3578" id="Stroke-50"></path>
                <path d="M304.0273,189.5668 L258.5673,235.0268" id="Stroke-51"></path>
                <path d="M393.9902,99.6049 L372.8522,120.7419" id="Stroke-52"></path>
                <path d="M310.7221,193.1938 L266.0071,237.9088" id="Stroke-53"></path>
                <path d="M403.8105,100.1049 L381.2825,122.6329" id="Stroke-54"></path>
                <path d="M27.4033,476.5121 L72.1183,431.7971" id="Stroke-55"></path>
                <path d="M317.2231,197.0141 L273.1211,241.1161" id="Stroke-56"></path>
                <path d="M31.2236,483.0131 L75.3256,438.9111" id="Stroke-57"></path>
                <path d="M414.3076,99.9301 L390.8216,123.4151" id="Stroke-58"></path>
                <path d="M35.249,489.309 L78.841,445.717" id="Stroke-59"></path>
                <path d="M323.519,201.0395 L279.927,244.6315" id="Stroke-60"></path>
                <path d="M425.4443,99.1137 L401.9433,122.6147" id="Stroke-61"></path>
                <path d="M329.6328,205.2465 L286.4458,248.4335" id="Stroke-62"></path>
                <path d="M437.1767,97.7026 L413.6467,121.2326" id="Stroke-63"></path>
                <path d="M39.4565,495.4233 L82.6425,452.2363" id="Stroke-64"></path>
                <path d="M335.5483,209.6528 L292.6903,252.5098" id="Stroke-65"></path>
                <path d="M43.8623,501.3383 L86.7203,458.4813" id="Stroke-66"></path>
                <path d="M449.4697,95.7309 L418.5707,126.6299" id="Stroke-67"></path>
                <path d="M440.2265,115.2953 L462.3055,93.2163" id="Stroke-68"></path>
                <path d="M48.4394,507.0834 L91.0644,464.4584" id="Stroke-69"></path>
                <path d="M341.2929,214.2299 L298.6679,256.8539" id="Stroke-70"></path>
                <path d="M436.9843,118.5375 L423.4943,132.0275" id="Stroke-71"></path>
                <path d="M189.9658,375.8774 L201.1538,364.6894" id="Stroke-72"></path>
                <path d="M442.1992,123.644 L428.4182,137.426" id="Stroke-73"></path>
                <path d="M475.6777,90.1664 L454.0317,111.8114" id="Stroke-74"></path>
                <path d="M346.8393,219.0043 L304.3853,261.4583" id="Stroke-75"></path>
                <path d="M53.2138,512.6293 L95.6678,470.1763" id="Stroke-76"></path>
                <path d="M309.8476,266.3168 L352.2236,223.9408" id="Stroke-77"></path>
                <path d="M172.6416,403.5229 L180.0806,396.0839" id="Stroke-78"></path>
                <path d="M58.1503,518.0141 L100.5263,475.6381" id="Stroke-79"></path>
                <path d="M489.5995,86.5649 L466.6995,109.4649" id="Stroke-80"></path>
                <path d="M190.0605,386.1039 L216.2915,359.8729" id="Stroke-81"></path>
                <path d="M447.414,128.7504 L430.688,145.4764" id="Stroke-82"></path>
                <path d="M357.4081,229.0776 L315.0561,271.4296" id="Stroke-83"></path>
                <path d="M464.372,122.1137 L434.757,151.7287" id="Stroke-84"></path>
                <path d="M179.2294,407.2563 L223.1354,363.3503" id="Stroke-85"></path>
                <path d="M504.1513,82.3344 L477.5893,108.8964" id="Stroke-86"></path>
                <path d="M63.2876,523.1987 L105.6396,480.8467" id="Stroke-87"></path>
                <path d="M516.3906,80.4164 L439.2836,157.5244" id="Stroke-88"></path>
                <path d="M362.4306,234.3764 L320.0126,276.7944" id="Stroke-89"></path>
                <path d="M68.5864,528.2211 L111.0044,485.8031" id="Stroke-90"></path>
                <path d="M186.1386,410.6694 L229.9376,366.8694" id="Stroke-91"></path>
                <path d="M522.6191,84.5102 L443.7461,163.3822" id="Stroke-92"></path>
                <path d="M74.0791,533.0492 L116.6241,490.5042" id="Stroke-93"></path>
                <path d="M193.2534,413.8754 L236.8634,370.2654" id="Stroke-94"></path>
                <path d="M367.2587,239.8696 L324.7147,282.4146" id="Stroke-95"></path>
                <path d="M371.9169,245.5327 L329.1579,288.2917" id="Stroke-96"></path>
                <path d="M79.7421,537.7074 L122.5011,494.9484" id="Stroke-97"></path>
                <path d="M528.5878,88.8627 L448.1028,169.3477" id="Stroke-98"></path>
                <path d="M200.518,416.9321 L243.973,373.4771" id="Stroke-99"></path>
                <path d="M207.8964,419.8754 L251.8984,375.8724" id="Stroke-100"></path>
                <path d="M85.5966,542.1742 L128.6416,499.1292" id="Stroke-101"></path>
                <path d="M376.3837,251.3871 L333.3387,294.4321" id="Stroke-102"></path>
                <path d="M537.3593,90.4116 L452.3303,175.4406" id="Stroke-103"></path>
                <path d="M215.3662,422.726 L260.5702,377.523" id="Stroke-104"></path>
                <path d="M551.0351,87.0571 L456.4171,181.6751" id="Stroke-105"></path>
                <path d="M91.6318,546.4613 L135.0548,503.0373" id="Stroke-106"></path>
                <path d="M380.6708,257.4223 L337.2478,300.8453" id="Stroke-107"></path>
                <path d="M384.7626,263.6508 L340.8666,307.5468" id="Stroke-108"></path>
                <path d="M222.913,425.5004 L269.741,378.6724" id="Stroke-109"></path>
                <path d="M564.3896,84.0239 L460.3556,188.0589" id="Stroke-110"></path>
                <path d="M97.8603,550.5531 L141.7563,506.6571" id="Stroke-111"></path>
                <path d="M104.2807,554.4545 L148.7547,509.9795" id="Stroke-112"></path>
                <path d="M577.4423,81.2934 L464.1393,194.5964" id="Stroke-113"></path>
                <path d="M388.664,270.0717 L344.19,314.5457" id="Stroke-114"></path>
                <path d="M230.5249,428.2104 L279.2919,379.4434" id="Stroke-115"></path>
                <path d="M392.3622,276.6948 L347.1982,321.8578" id="Stroke-116"></path>
                <path d="M238.1933,430.8637 L289.1563,379.8997" id="Stroke-117"></path>
                <path d="M110.9043,558.1528 L156.0673,512.9898" id="Stroke-118"></path>
                <path d="M590.2451,78.811 L467.7651,201.292" id="Stroke-119"></path>
                <path d="M245.9121,433.4662 L299.2921,380.0852" id="Stroke-120"></path>
                <path d="M117.7304,561.6469 L163.7144,515.6639" id="Stroke-121"></path>
                <path d="M602.8027,76.5756 L471.1987,208.1796" id="Stroke-122"></path>
                <path d="M395.8574,283.5209 L349.8734,329.5039" id="Stroke-123"></path>
                <path d="M124.7773,564.9223 L171.7213,517.9783" id="Stroke-124"></path>
                <path d="M399.1318,290.5678 L352.1878,337.5118" id="Stroke-125"></path>
                <path d="M615.1376,74.562 L474.4546,215.244" id="Stroke-126"></path>
                <path d="M253.6757,436.0229 L309.6657,380.0339" id="Stroke-127"></path>
                <path d="M627.2802,72.7407 L477.5082,222.5127" id="Stroke-128"></path>
                <path d="M320.1157,379.9047 L293.2577,406.7617" id="Stroke-129"></path>
                <path d="M132.0385,567.9819 L180.1465,519.8739" id="Stroke-130"></path>
                <path d="M261.4804,438.5405 L287.5694,412.4505" id="Stroke-131"></path>
                <path d="M402.1913,297.8286 L354.0833,345.9366" id="Stroke-132"></path>
                <path d="M139.5493,570.7924 L189.0103,521.3314" id="Stroke-133"></path>
                <path d="M269.3227,441.019 L291.2887,419.053" id="Stroke-134"></path>
                <path d="M330.5019,379.8403 L305.5299,404.8123" id="Stroke-135"></path>
                <path d="M405.0019,305.3393 L355.5409,354.8013" id="Stroke-136"></path>
                <path d="M639.2158,71.1264 L480.3438,229.9984" id="Stroke-137"></path>
                <path d="M650.9843,69.6782 L482.9483,237.7142" id="Stroke-138"></path>
                <path d="M147.2919,573.3715 L198.3859,522.2765" id="Stroke-139"></path>
                <path d="M407.581,313.0825 L356.486,364.1775" id="Stroke-140"></path>
                <path d="M316.4667,404.1967 L340.8377,379.8257" id="Stroke-141"></path>
                <path d="M277.1992,443.4633 L297.8722,422.7903" id="Stroke-142"></path>
                <path d="M155.3149,575.6694 L208.3469,522.6384" id="Stroke-143"></path>
                <path d="M409.8788,321.1049 L356.8478,374.1369" id="Stroke-144"></path>
                <path d="M662.5859,68.3979 L485.2929,245.6919" id="Stroke-145"></path>
                <path d="M327.0576,403.9272 L351.1286,379.8552" id="Stroke-146"></path>
                <path d="M285.1083,445.8764 L306.0923,424.8924" id="Stroke-147"></path>
                <path d="M674.0253,67.2807 L487.3663,253.9397" id="Stroke-148"></path>
                <path d="M293.0488,448.2572 L314.5748,426.7312" id="Stroke-149"></path>
                <path d="M411.9013,329.4047 L337.5013,403.8047" id="Stroke-150"></path>
                <path d="M163.6142,577.6918 L219.0252,522.2808" id="Stroke-151"></path>
                <path d="M301.0175,450.6098 L323.0895,428.5378" id="Stroke-152"></path>
                <path d="M685.3212,66.3051 L489.1192,262.5081" id="Stroke-153"></path>
                <path d="M413.6298,337.9965 L347.8708,403.7555" id="Stroke-154"></path>
                <path d="M172.2065,579.4203 L230.6005,521.0263" id="Stroke-155"></path>
                <path d="M309.0131,452.935 L331.6361,430.312" id="Stroke-156"></path>
                <path d="M352.3823,409.5658 L415.0103,346.9368" id="Stroke-157"></path>
                <path d="M181.1469,580.8012 L243.3989,518.5492" id="Stroke-158"></path>
                <path d="M696.4736,65.4741 L490.5456,271.4031" id="Stroke-160"></path>
                <path d="M707.4863,64.7827 L491.5613,280.7087" id="Stroke-161"></path>
                <path d="M340.2153,432.0541 L317.0363,455.2331" id="Stroke-162"></path>
                <path d="M190.4482,581.8217 L258.0252,514.2447" id="Stroke-163"></path>
                <path d="M347.2958,424.974 L416.0308,356.239" id="Stroke-165"></path>
                <path d="M200.1474,582.4438 L276.1664,506.4238" id="Stroke-166"></path>
                <path d="M718.372,64.2192 L492.272,290.3192" id="Stroke-168"></path>
                <path d="M325.0854,457.5053 L416.6534,365.9383" id="Stroke-169"></path>
                <path d="M416.8369,376.0746 L210.3019,582.6106" id="Stroke-170"></path>
                <path d="M656.1132,136.7983 L729.1322,63.7803" id="Stroke-172"></path>
                <path d="M612.9863,179.9252 L492.9253,299.9862" id="Stroke-173"></path>
                <path d="M422.289,380.9447 L428.759,374.4747" id="Stroke-174"></path>
                <path d="M607.664,195.5688 L493.571,309.6628" id="Stroke-175"></path>
                <path d="M739.7685,63.4643 L673.8455,129.3883" id="Stroke-176"></path>
                <path d="M422.289,380.9447 L220.977,582.2567" id="Stroke-177"></path>
                <path d="M428.7587,374.475 L436.2827,366.95" id="Stroke-179"></path>
                <path d="M750.2851,63.27 L688.4761,125.079" id="Stroke-180"></path>
                <path d="M232.3105,581.2446 L446.3415,367.2126" id="Stroke-181"></path>
                <path d="M605.0644,208.4907 L494.2074,319.3477" id="Stroke-183"></path>
                <path d="M603.704,220.1723 L486.516,337.3593" id="Stroke-184"></path>
                <path d="M244.3994,579.477 L412.6884,411.188" id="Stroke-185"></path>
                <path d="M456.4003,367.476 L419.3263,404.55" id="Stroke-186"></path>
                <path d="M760.6816,63.1948 L701.6196,122.2568" id="Stroke-187"></path>
                <path d="M257.4545,576.7436 L409.4545,424.7426" id="Stroke-188"></path>
                <path d="M603.1738,231.0229 L478.0318,356.1659" id="Stroke-189"></path>
                <path d="M429.0644,405.1332 L466.4594,367.7382" id="Stroke-190"></path>
                <path d="M770.9667,63.2309 L713.8797,120.3179" id="Stroke-191"></path>
                <path d="M271.79,572.7289 L406.036,438.4829" id="Stroke-192"></path>
                <path d="M438.7841,405.7348 L603.2511,241.2678" id="Stroke-193"></path>
                <path d="M823.3427,21.1762 L843.8477,0.6702" id="Stroke-194"></path>
                <path d="M781.1415,63.3774 L725.5025,119.0164" id="Stroke-196"></path>
                <path d="M448.4697,406.3705 L603.7877,251.0525" id="Stroke-197"></path>
                <path d="M791.206,63.6342 L736.652,118.1882" id="Stroke-198"></path>
                <path d="M288.0829,566.7572 L411.3159,443.5242" id="Stroke-199"></path>
                <path d="M852.0634,2.7768 L825.6374,29.2028" id="Stroke-200"></path>
                <path d="M307.7177,557.4438 L420.7577,444.4038" id="Stroke-202"></path>
                <path d="M801.163,63.9985 L747.436,117.7255" id="Stroke-203"></path>
                <path d="M457.8593,407.3012 L604.6883,260.4722" id="Stroke-204"></path>
                <path d="M858.7265,6.434 L836.5495,28.612" id="Stroke-205"></path>
                <path d="M385.1357,490.3471 L430.9617,444.5211" id="Stroke-206"></path>
                <path d="M757.8984,117.5834 L811.0104,64.4724" id="Stroke-207"></path>
                <path d="M841.3925,34.0903 L845.5125,29.9703" id="Stroke-208"></path>
                <path d="M337.5698,537.9125 L374.5398,500.9425" id="Stroke-209"></path>
                <path d="M465.9413,409.5414 L605.8823,269.5994" id="Stroke-210"></path>
                <path d="M374.54,500.9428 L385.136,490.3468" id="Stroke-211"></path>
                <path d="M845.5126,29.9702 L865.0716,10.4112" id="Stroke-212"></path>
                <path d="M841.3925,34.0903 L834.4135,41.0693" id="Stroke-213"></path>
                <path d="M836.6191,49.184 L873.1701,12.634" id="Stroke-214"></path>
                <path d="M393.3095,492.4946 L442.8485,442.9556" id="Stroke-215"></path>
                <path d="M820.749,65.0541 L768.101,117.7031" id="Stroke-216"></path>
                <path d="M469.7831,416.0199 L607.3341,278.4699" id="Stroke-217"></path>
                <path d="M401.4658,494.6596 L609.0098,287.1156" id="Stroke-218"></path>
                <path d="M830.372,65.7534 L778.078,118.0474" id="Stroke-219"></path>
                <path d="M847.8115,48.3139 L881.5385,14.5869" id="Stroke-220"></path>
                <path d="M409.6005,496.8461 L610.8635,295.5831" id="Stroke-221"></path>
                <path d="M890.6328,15.8139 L847.5478,58.8989" id="Stroke-222"></path>
                <path d="M787.8574,118.5893 L839.8694,66.5773" id="Stroke-223"></path>
                <path d="M899.7421,17.0258 L797.4631,119.3048" id="Stroke-224"></path>
                <path d="M417.705,499.0629 L612.9,303.8679" id="Stroke-225"></path>
                <path d="M424.9677,502.1215 L615.0717,312.0175" id="Stroke-226"></path>
                <path d="M908.8554,18.2338 L806.9134,120.1758" id="Stroke-227"></path>
                <path d="M427.4081,510.0024 L617.3921,320.0184" id="Stroke-228"></path>
                <path d="M919.3661,18.0444 L816.2201,121.1904" id="Stroke-229"></path>
                <path d="M925.3173,22.4145 L825.3953,122.3365" id="Stroke-230"></path>
                <path d="M434.5917,513.141 L619.8257,327.906" id="Stroke-231"></path>
                <path d="M867.2421,90.811 L834.4481,123.605" id="Stroke-232"></path>
                <path d="M875.4609,82.5922 L922.7149,35.3382" id="Stroke-233"></path>
                <path d="M447.5683,510.4848 L622.3773,335.6758" id="Stroke-234"></path>
                <path d="M869.5615,98.8129 L843.3835,124.9909" id="Stroke-235"></path>
                <path d="M931.3544,37.02 L878.5644,89.81" id="Stroke-236"></path>
                <path d="M458.4492,509.9252 L625.0272,343.3472" id="Stroke-237"></path>
                <path d="M871.6689,107.0268 L852.2049,126.4908" id="Stroke-238"></path>
                <path d="M466.7802,511.9155 L627.7722,350.9235" id="Stroke-239"></path>
                <path d="M939.9951,38.7006 L881.9871,96.7086" id="Stroke-240"></path>
                <path d="M474.8632,514.1537 L497.1752,491.8417" id="Stroke-241"></path>
                <path d="M497.1757,491.8422 L500.1537,488.8632" id="Stroke-242"></path>
                <path d="M500.1533,488.8637 L630.6103,358.4077" id="Stroke-243"></path>
                <path d="M873.4755,115.5414 L860.9125,128.1044" id="Stroke-244"></path>
                <path d="M948.621,40.3959 L885.411,103.6059" id="Stroke-245"></path>
                <path d="M874.7578,124.5805 L869.4938,129.8445" id="Stroke-246"></path>
                <path d="M484.7704,514.5678 L495.1934,504.1448" id="Stroke-247"></path>
                <path d="M956.58,42.7592 L888.834,110.5042" id="Stroke-248"></path>
                <path d="M498.9911,500.3471 L633.5231,365.8151" id="Stroke-249"></path>
                <path d="M498.9911,500.3471 L495.1931,504.1451" id="Stroke-250"></path>
                <path d="M963.8935,45.7661 L892.2575,117.4021" id="Stroke-251"></path>
                <path d="M498.2294,511.4301 L636.5214,373.1381" id="Stroke-252"></path>
                <path d="M970.6943,49.2866 L895.6813,124.3006" id="Stroke-253"></path>
                <path d="M503.4335,516.5473 L639.5875,380.3933" id="Stroke-254"></path>
                <path d="M518.6191,511.683 L642.7231,387.579" id="Stroke-255"></path>
                <path d="M977.0234,53.2787 L899.1044,131.1977" id="Stroke-256"></path>
                <path d="M537.2119,503.4115 L645.9269,394.6965" id="Stroke-257"></path>
                <path d="M982.9042,57.7192 L902.5282,138.0952" id="Stroke-258"></path>
                <path d="M555.4931,495.4526 L649.1871,401.7576" id="Stroke-259"></path>
                <path d="M988.3437,62.601 L905.7607,145.184" id="Stroke-260"></path>
                <path d="M993.332,67.935 L909.119,152.147" id="Stroke-261"></path>
                <path d="M565.4257,495.8412 L652.5137,408.7532" id="Stroke-262"></path>
                <path d="M575.3583,496.2299 L655.8903,415.6969" id="Stroke-263"></path>
                <path d="M997.8769,73.7114 L912.5539,159.0344" id="Stroke-264"></path>
                <path d="M1001.9687,79.9399 L915.9887,165.9209" id="Stroke-265"></path>
                <path d="M585.291,496.6186 L659.328,422.5806" id="Stroke-266"></path>
                <path d="M1005.6064,86.6235 L919.4224,172.8075" id="Stroke-267"></path>
                <path d="M595.2236,497.0072 L662.8136,429.4162" id="Stroke-268"></path>
                <path d="M605.1562,497.3959 L666.3542,436.1969" id="Stroke-269"></path>
                <path d="M1009.0195,93.5317 L922.8595,179.6927" id="Stroke-270"></path>
                <path d="M615.0888,497.7846 L669.9428,442.9306" id="Stroke-271"></path>
                <path d="M1012.4277,100.4448 L926.2947,186.5778" id="Stroke-272"></path>
                <path d="M1015.829,107.3647 L961.344,161.8507" id="Stroke-273"></path>
                <path d="M954.4902,168.7036 L929.7322,193.4616" id="Stroke-274"></path>
                <path d="M625.0214,498.1733 L673.5794,449.6143" id="Stroke-275"></path>
                <path d="M930.7636,202.7524 L877.6136,255.9014" id="Stroke-276"></path>
                <path d="M930.7636,202.7524 L933.1696,200.3454" id="Stroke-277"></path>
                <path d="M634.954,498.5619 L677.267,456.2489" id="Stroke-278"></path>
                <path d="M1019.2226,114.2924 L970.0036,163.5114" id="Stroke-279"></path>
                <path d="M957.705,175.81 L933.17,200.345" id="Stroke-280"></path>
                <path d="M1022.6074,121.2299 L978.5654,165.2709" id="Stroke-281"></path>
                <path d="M644.8867,498.9496 L681.0007,462.8356" id="Stroke-282"></path>
                <path d="M960.9199,182.9174 L862.6659,281.1704" id="Stroke-283"></path>
                <path d="M1025.9785,128.1791 L986.9025,167.2561" id="Stroke-284"></path>
                <path d="M654.8193,499.3383 L684.7823,469.3753" id="Stroke-285"></path>
                <path d="M975.4697,178.6879 L854.5157,299.6419" id="Stroke-286"></path>
                <path d="M1029.332,135.1469 L993.55,170.9299" id="Stroke-287"></path>
                <path d="M664.7519,499.727 L688.6119,475.868" id="Stroke-288"></path>
                <path d="M849.2421,315.2368 L991.1261,173.3528" id="Stroke-289"></path>
                <path d="M674.6845,500.1156 L692.4915,482.3086" id="Stroke-290"></path>
                <path d="M1032.6699,142.1303 L845.6219,329.1793" id="Stroke-291"></path>
                <path d="M1035.7715,149.35 L843.2035,341.918" id="Stroke-292"></path>
                <path d="M684.6171,500.5043 L696.4241,488.6983" id="Stroke-293"></path>
                <path d="M841.6933,353.7494 L925.1863,270.2574" id="Stroke-294"></path>
                <path d="M945.1718,250.2709 L1038.6258,156.8179" id="Stroke-295"></path>
                <path d="M840.8925,364.8715 L904.8755,300.8895" id="Stroke-296"></path>
                <path d="M1041.2637,164.5014 L957.5237,248.2404" id="Stroke-297"></path>
                <path d="M840.6572,375.4291 L896.9352,319.1501" id="Stroke-298"></path>
                <path d="M983.6874,232.3989 L960.9684,255.1179" id="Stroke-299"></path>
                <path d="M1050.3447,165.7416 L994.0797,222.0056" id="Stroke-300"></path>
                <path d="M840.9316,385.476 L892.3106,334.096" id="Stroke-301"></path>
                <path d="M986.956,239.4506 L964.415,261.9916" id="Stroke-302"></path>
                <path d="M1060.3916,166.0151 L1009.0196,217.3881" id="Stroke-303"></path>
                <path d="M1069.9883,166.7407 L1018.7203,218.0087" id="Stroke-304"></path>
                <path d="M990.2304,246.4985 L967.8634,268.8655" id="Stroke-305"></path>
                <path d="M841.6562,395.0727 L889.5292,347.1997" id="Stroke-306"></path>
                <path d="M1079.1924,167.8578 L1020.1674,226.8818" id="Stroke-307"></path>
                <path d="M993.5097,253.5395 L971.3127,275.7375" id="Stroke-308"></path>
                <path d="M842.7734,404.2768 L887.9464,359.1038" id="Stroke-309"></path>
                <path d="M996.7968,260.5737 L974.7638,282.6077" id="Stroke-310"></path>
                <path d="M844.2363,413.1352 L887.2853,370.0862" id="Stroke-311"></path>
                <path d="M1088.0508,169.3207 L1021.1918,236.1797" id="Stroke-312"></path>
                <path d="M1000.0927,267.6 L978.2157,289.476" id="Stroke-313"></path>
                <path d="M1096.5957,171.0971 L1055.2777,212.4141" id="Stroke-314"></path>
                <path d="M846.0126,421.6791 L887.3316,380.3611" id="Stroke-315"></path>
                <path d="M1052.7334,214.9594 L1022.1134,245.5784" id="Stroke-316"></path>
                <path d="M1003.3974,274.6157 L981.6704,296.3437" id="Stroke-317"></path>
                <path d="M848.1113,429.9028 L887.9603,390.0538" id="Stroke-318"></path>
                <path d="M1104.8184,173.1948 L1064.9744,213.0388" id="Stroke-319"></path>
                <path d="M1054.0215,223.9926 L1023.0315,254.9826" id="Stroke-320"></path>
                <path d="M1055.1064,233.2289 L1023.9324,264.4029" id="Stroke-321"></path>
                <path d="M1112.7783,175.5571 L1074.1533,214.1821" id="Stroke-322"></path>
                <path d="M850.4726,437.8627 L889.0866,399.2477" id="Stroke-323"></path>
                <path d="M985.1279,303.2075 L1006.7159,281.6195" id="Stroke-324"></path>
                <path d="M1055.9814,242.6743 L1024.8004,273.8563" id="Stroke-325"></path>
                <path d="M853.0917,445.5639 L890.6757,407.9799" id="Stroke-326"></path>
                <path d="M1120.4795,178.1772 L1082.8925,215.7642" id="Stroke-327"></path>
                <path d="M988.5878,310.0688 L1010.0528,288.6038" id="Stroke-328"></path>
                <path d="M1056.6699,252.308 L1025.6079,283.37" id="Stroke-329"></path>
                <path d="M992.0507,316.9272 L1013.4137,295.5642" id="Stroke-330"></path>
                <path d="M1127.9277,181.0502 L1091.2347,217.7422" id="Stroke-331"></path>
                <path d="M855.9658,453.0121 L892.6588,416.3181" id="Stroke-332"></path>
                <path d="M859.0556,460.2426 L895.0026,424.2966" id="Stroke-333"></path>
                <path d="M1057.3613,261.9379 L1026.2983,293.0009" id="Stroke-334"></path>
                <path d="M995.5175,323.7817 L1016.8205,302.4787" id="Stroke-335"></path>
                <path d="M1135.1582,184.1401 L1099.2162,220.0831" id="Stroke-336"></path>
                <path d="M1142.1484,187.4721 L1106.8634,222.7571" id="Stroke-337"></path>
                <path d="M998.9882,330.6322 L1020.3382,309.2822" id="Stroke-338"></path>
                <path d="M862.3876,467.2328 L897.6786,431.9418" id="Stroke-339"></path>
                <path d="M1058.0918,271.5287 L1026.7208,302.8997" id="Stroke-340"></path>
                <path d="M1058.8564,281.0854 L1002.4644,337.4764" id="Stroke-341"></path>
                <path d="M1148.9463,190.9955 L1114.2003,225.7415" id="Stroke-342"></path>
                <path d="M865.9111,474.0307 L900.6631,439.2787" id="Stroke-343"></path>
                <path d="M869.6601,480.603 L903.9371,446.326" id="Stroke-344"></path>
                <path d="M1155.5176,194.7446 L1121.2466,229.0156" id="Stroke-345"></path>
                <path d="M1059.6514,290.6118 L1005.9494,344.3138" id="Stroke-346"></path>
                <path d="M1161.9131,198.6713 L1128.0171,232.5663" id="Stroke-347"></path>
                <path d="M1060.4727,300.1118 L1009.4447,351.1398" id="Stroke-348"></path>
                <path d="M873.5869,486.9975 L907.4859,453.0985" id="Stroke-349"></path>
                <path d="M1168.0938,202.812 L1134.5268,236.378" id="Stroke-350"></path>
                <path d="M1061.3164,309.5893 L1012.9544,357.9513" id="Stroke-351"></path>
                <path d="M877.7275,493.1781 L911.2965,459.6091" id="Stroke-352"></path>
                <path d="M1174.1055,207.1215 L1140.7835,240.4435" id="Stroke-353"></path>
                <path d="M882.037,499.1899 L915.358,465.8689" id="Stroke-354"></path>
                <path d="M1062.1807,319.0463 L1016.4937,364.7333" id="Stroke-355"></path>
                <path d="M1063.0625,328.4858 L1020.1555,371.3928" id="Stroke-356"></path>
                <path d="M886.5488,504.9994 L919.6628,471.8854" id="Stroke-357"></path>
                <path d="M1179.9141,211.6332 L1146.7961,244.7522" id="Stroke-358"></path>
                <path d="M1063.96,337.9096 L1024.576,377.2936" id="Stroke-359"></path>
                <path d="M1185.5557,216.3139 L1152.5707,249.2989" id="Stroke-360"></path>
                <path d="M891.2294,510.6401 L924.2074,477.6611" id="Stroke-361"></path>
                <path d="M1064.8682,347.3227 L1029.9442,382.2467" id="Stroke-362"></path>
                <path d="M896.1005,516.0903 L928.9915,483.1993" id="Stroke-363"></path>
                <path d="M1191.0059,221.185 L1158.1109,254.08" id="Stroke-364"></path>
                <path d="M1196.2842,226.228 L1163.4212,259.091" id="Stroke-365"></path>
                <path d="M1065.7842,356.728 L1036.1292,386.383" id="Stroke-366"></path>
                <path d="M901.1435,521.3686 L934.0055,488.5066" id="Stroke-367"></path>
                <path d="M1066.7031,366.1303 L1043.0391,389.7933" id="Stroke-368"></path>
                <path d="M1201.3799,231.4536 L1168.4999,264.3336" id="Stroke-369"></path>
                <path d="M906.3691,526.4643 L939.2501,493.5833" id="Stroke-370"></path>
                <path d="M911.7734,531.3813 L944.7254,498.4293" id="Stroke-371"></path>
                <path d="M1206.2969,236.8578 L1173.3489,269.8058" id="Stroke-372"></path>
                <path d="M1067.6143,375.5405 L1050.6263,392.5285" id="Stroke-373"></path>
                <path d="M917.3544,536.1215 L950.4324,503.0435" id="Stroke-374"></path>
                <path d="M1068.4941,384.9819 L1058.8691,394.6069" id="Stroke-375"></path>
                <path d="M1211.0371,242.4389 L1177.9641,275.5119" id="Stroke-376"></path>
                <path d="M1215.5889,248.2084 L1182.3429,281.4544" id="Stroke-377"></path>
                <path d="M923.124,540.6733 L956.376,507.4213" id="Stroke-378"></path>
                <path d="M929.0673,545.0512 L962.5623,511.5562" id="Stroke-379"></path>
                <path d="M1219.9668,254.1518 L1186.4748,287.6438" id="Stroke-380"></path>
                <path d="M935.2109,549.2289 L968.9969,515.4429" id="Stroke-381"></path>
                <path d="M1224.1445,260.2953 L1190.3575,294.0833" id="Stroke-382"></path>
                <path d="M941.5312,553.2299 L975.6912,519.0699" id="Stroke-383"></path>
                <path d="M1228.1455,266.6157 L1193.9815,300.7797" id="Stroke-384"></path>
                <path d="M948.0654,557.017 L982.6574,522.425" id="Stroke-385"></path>
                <path d="M1231.9326,273.1498 L1197.3346,307.7478" id="Stroke-386"></path>
                <path d="M1235.5342,279.8696 L1200.4052,314.9996" id="Stroke-387"></path>
                <path d="M954.7851,560.6186 L989.9101,525.4946" id="Stroke-388"></path>
                <path d="M1238.9092,286.8159 L1203.1722,322.5529" id="Stroke-389"></path>
                <path d="M961.7314,563.9936 L997.4644,528.2606" id="Stroke-390"></path>
                <path d="M968.8828,567.1645 L1005.3478,530.6985" id="Stroke-391"></path>
                <path d="M1242.0801,293.9672 L1205.6161,330.4312" id="Stroke-392"></path>
                <path d="M1245.0107,301.3569 L1207.7007,338.6669" id="Stroke-393"></path>
                <path d="M976.2724,570.0951 L1013.5844,532.7831" id="Stroke-394"></path>
                <path d="M983.8994,572.7905 L1022.2094,534.4795" id="Stroke-395"></path>
                <path d="M1247.7061,308.9838 L1209.3961,347.2928" id="Stroke-396"></path>
                <path d="M991.7763,575.2348 L1031.2613,535.7488" id="Stroke-397"></path>
                <path d="M1250.1504,316.8608 L1210.6644,356.3458" id="Stroke-398"></path>
                <path d="M999.9374,577.394 L1040.7934,536.539" id="Stroke-399"></path>
                <path d="M1252.3096,325.0219 L1211.4536,365.8779" id="Stroke-400"></path>
                <path d="M1254.1904,333.4623 L1211.6664,375.9863" id="Stroke-401"></path>
                <path d="M1008.3779,579.2748 L1050.9019,536.7518" id="Stroke-402"></path>
                <path d="M1017.1367,580.8383 L1061.6597,536.3143" id="Stroke-403"></path>
                <path d="M1255.7539,342.2211 L1211.2299,386.7451" id="Stroke-405"></path>
                <path d="M1026.25,582.0453 L1073.271,535.0243" id="Stroke-407"></path>
                <path d="M1256.9609,351.3344 L1209.9399,398.3554" id="Stroke-409"></path>
                <path d="M1035.7383,582.8793 L1085.9773,532.6403" id="Stroke-411"></path>
                <path d="M1257.7949,360.8217 L1207.5549,411.0617" id="Stroke-413"></path>
                <path d="M1258.209,370.7299 L1203.541,425.3969" id="Stroke-415"></path>
                <path d="M1045.6455,583.2924 L1100.3125,528.6254" id="Stroke-417"></path>
                <path d="M1056.0322,583.227 L1117.3512,521.909" id="Stroke-419"></path>
                <path d="M1258.1426,381.1166 L1196.8246,442.4356" id="Stroke-421"></path>
                <path d="M1257.5137,392.0668 L1183.1617,466.4188" id="Stroke-423"></path>
                <path d="M1066.9824,582.599 L1141.3344,508.246" id="Stroke-425"></path>
                <path d="M1256.2119,403.6908 L1078.6069,581.2958" id="Stroke-427"></path>
                <path d="M1091.0488,579.1742 L1254.0898,416.1342" id="Stroke-430"></path>
                <path d="M1104.6133,575.9311 L1250.8473,429.6981" id="Stroke-431"></path>
                <path d="M1119.6943,571.1713 L1246.0873,444.7783" id="Stroke-432"></path>
                <path d="M1137.2139,563.974 L1238.8899,462.298" id="Stroke-433"></path>
                <path d="M1159.7676,551.7406 L1226.6566,484.8526" id="Stroke-434"></path>
            </g>
            <g id="bike" transform="translate(1.000000, 0.711000)" stroke="#00D2FF">
                <path d="M531.5859,92.0004 C699.8999,48.0094 850.0959,68.1524 850.0959,68.1524 C850.0959,68.9064 862.7189,80.0214 862.7189,80.0214 C862.7189,80.0214 873.6469,110.7314 874.0229,130.7034 C874.0229,130.7034 640.7609,74.4814 607.3229,191.6784 C578.8459,291.4874 668.1259,445.5684 695.2429,489.0894 C698.3699,494.1064 694.6169,500.5764 688.7109,500.3454 L553.9819,495.0734" id="Stroke-435" stroke-width="2"></path>
                <path d="M317.1035,61.1762 C317.1035,61.1762 311.5385,62.6742 316.0335,70.5942 C320.5285,78.5152 349.4255,129.4592 399.9425,122.3962 C450.4595,115.3322 471.8655,102.2752 493.2705,112.5492 C514.6755,122.8232 546.8265,137.0912 580.3905,128.3892 C597.7295,123.8942 609.2885,119.1852 606.2915,109.9812 C603.2945,100.7772 592.5915,100.7772 583.1735,102.2752 C573.7545,103.7732 546.9985,102.0612 531.5855,92.0002 C516.1745,81.9402 516.1745,78.3002 508.2545,81.0832 C500.3335,83.8652 401.6555,115.5462 364.4095,91.5722 C327.1645,67.5982 321.8125,59.2492 317.1035,61.1762 Z" id="Stroke-437" stroke-width="2"></path>
                <path d="M601.3867,112.3774 C601.3867,109.3144 598.9037,106.8314 595.8407,106.8314 C592.7777,106.8314 590.2947,109.3144 590.2947,112.3774 C590.2947,115.4404 592.7777,117.9234 595.8407,117.9234 C598.9037,117.9234 601.3867,115.4404 601.3867,112.3774 Z" id="Stroke-439" stroke-width="0.75"></path>
                <path d="M483.9091,109.4721 C483.9091,109.4721 430.3391,141.0131 430.0441,145.4451 C429.7481,149.8761 485.5881,202.1701 491.2011,284.0091 C496.8141,365.8481 497.4051,386.0521 497.4051,386.0521" id="Stroke-441" stroke-width="2"></path>
                <path d="M241.9619,373.0561 C251.2859,377.1481 272.5699,380.6201 308.9099,380.0301 C345.2509,379.4391 461.9519,379.4391 525.1779,389.7801 C588.4029,400.1201 579.4159,398.4871 593.1309,419.0291 C601.2989,431.2651 614.6979,459.5051 614.6979,459.5051 C614.6979,459.5051 632.1299,490.5271 598.1529,490.2321 C564.1769,489.9361 462.6019,494.1651 364.1589,468.3691 C273.2729,444.5521 186.5819,416.4231 166.5849,399.9641 C165.1189,398.7581 166.0109,396.3741 167.9089,396.3921 C175.6439,396.4671 189.9819,396.1121 189.5499,392.4391 C188.9589,387.4161 188.3849,374.4161 189.5579,372.3481 C190.7319,370.2811 207.2759,358.4621 215.8449,359.9401 C215.8449,359.9401 229.3389,367.5171 241.9619,373.0561 Z" id="Stroke-443" stroke-width="2"></path>
                <path d="M472.2109,486.519 C472.0209,487.423 475.7709,492.877 468.2699,492.877 C460.7699,492.877 395.9949,480.264 395.9949,480.264 C395.9949,480.264 356.2779,473.105 352.3569,473.787 C348.4369,474.468 345.3689,473.275 347.2439,477.537 C349.1189,481.798 351.5049,482.093 357.6419,483.309 C363.7779,484.525 417.1319,498.503 426.6779,501.571 C436.2239,504.639 467.5879,511.969 467.5879,511.969 C467.5879,511.969 492.9859,522.197 494.1799,501.401 C494.1799,501.401 496.6039,488.364 496.0939,488.332" id="Stroke-445" stroke-width="2"></path>
                <path d="M564.579,490.3256 C564.579,490.3256 524.692,508.2196 510.373,514.4836 C496.055,520.7486 497.405,508.3886 497.405,508.3886 L499.635,489.4686" id="Stroke-447" stroke-width="2"></path>
                <path d="M511.6396,507.7074 C511.6396,505.0314 509.4696,502.8624 506.7936,502.8624 C504.1186,502.8624 501.9486,505.0314 501.9486,507.7074 C501.9486,510.3844 504.1186,512.5534 506.7936,512.5534 C509.4696,512.5534 511.6396,510.3844 511.6396,507.7074 Z" id="Stroke-449" stroke-width="0.75"></path>
                <path d="M488.1415,502.8627 C488.1415,499.2307 485.1975,496.2867 481.5655,496.2867 C477.9345,496.2867 474.9905,499.2307 474.9905,502.8627 C474.9905,506.4937 477.9345,509.4377 481.5655,509.4377 C485.1975,509.4377 488.1415,506.4937 488.1415,502.8627 Z" id="Stroke-451" stroke-width="0.75"></path>
                <path d="M544.9765,463.3881 C544.9765,454.6331 537.8785,447.5351 529.1235,447.5351 C520.3695,447.5351 513.2715,454.6331 513.2715,463.3881 C513.2715,472.1441 520.3695,479.2411 529.1235,479.2411 C537.8785,479.2411 544.9765,472.1441 544.9765,463.3881 Z" id="Stroke-453" stroke-width="0.75"></path>
                <path d="M424.4745,500.8969 C423.8225,502.6199 424.6835,514.7339 435.4525,512.5529 C446.2195,510.3729 453.0445,508.4909 453.0445,508.4909" id="Stroke-455" stroke-width="2"></path>
                <path d="M493.5966,319.7075 C493.6506,320.5295 473.6686,364.4455 473.6686,364.4455 C473.6686,364.4455 467.6316,376.8455 480.3586,378.8035 C493.0836,380.7615 497.2536,381.3945 497.2536,381.3945" id="Stroke-457" stroke-width="2"></path>
                <path d="M487.1328,369.2504 C487.1328,366.3314 484.7668,363.9654 481.8478,363.9654 C478.9288,363.9654 476.5628,366.3314 476.5628,369.2504 C476.5628,372.1694 478.9288,374.5354 481.8478,374.5354 C484.7668,374.5354 487.1328,372.1694 487.1328,369.2504 Z" id="Stroke-459" stroke-width="0.75"></path>
                <path d="M299.7651,423.7113 C299.7651,423.7113 287.1351,420.7733 286.5471,412.2563 C285.9601,403.7373 308.2841,403.7373 367.3231,403.7373 C426.3621,403.7373 465.4291,405.5003 468.3661,411.9623 C471.3031,418.4243 461.9031,431.0553 454.5601,436.3423 C447.2171,441.6293 439.8741,447.7973 401.1011,442.8043 C362.3291,437.8113 299.7651,423.7113 299.7651,423.7113 Z" id="Stroke-461" stroke-width="2"></path>
                <path d="M440.4579,405.5434 C440.4579,405.5434 494.1359,405.5004 497.4049,417.5434 C497.4049,417.5434 500.4569,422.1214 487.1329,437.7044 C473.8079,453.2884 462.1949,460.5934 424.3119,456.9404 C386.4289,453.2884 349.0489,450.7804 297.6449,435.7194 C243.1379,419.7484 240.1379,411.5434 240.1379,411.5434 C238.9629,402.0184 340.2999,403.7374 340.2999,403.7374" id="Stroke-463"></path>
                <path d="M433.6494,116.2524 L448.7984,131.0854" id="Stroke-465" stroke-width="2"></path>
                <path d="M412.416,120.4467 L432.559,142.5297" id="Stroke-467" stroke-width="2"></path>
                <path d="M892.3661,36.2973 C891.9491,36.2973 869.2711,57.0263 869.2711,57.0263 C869.2711,57.0263 863.3581,64.7483 870.8021,72.1923 C878.2451,79.6353 886.2451,71.4963 886.2451,71.4963 L907.3921,51.1843 C907.3921,51.1843 911.1491,43.8103 905.1661,37.8273 C899.1831,31.8453 892.3661,36.2973 892.3661,36.2973 Z" id="Stroke-469" stroke-width="2"></path>
                <path d="M900.7138,34.7045 L915.4618,19.6005 C915.4618,19.6005 918.9408,16.8185 922.1398,19.6005 C925.3398,22.3845 923.9488,25.4445 922.1398,27.5315 C920.3308,29.6185 907.6428,41.3985 907.6428,41.3985" id="Stroke-471" stroke-width="2"></path>
                <path d="M915.4619,34.4877 L946.2089,40.4707 C946.2089,40.4707 984.4699,46.7317 1004.0869,86.3837 C1023.7039,126.0347 1029.8289,139.1327 1029.8289,139.1327 C1029.8289,139.1327 1050.7229,178.5957 1055.3649,247.8527 C1060.0079,317.1087 1069.2939,396.0387 1068.1329,396.0387 C1066.9729,396.0387 1031.7639,393.7167 1018.6089,370.5027 C1005.4539,347.2877 875.8409,86.5117 875.8409,86.5117 L870.8019,72.1917" id="Stroke-473" stroke-width="2"></path>
                <path d="M952.456,166.6088 C952.456,166.6088 949.036,160.0118 956.121,160.9898 C963.206,161.9658 983.972,166.6088 983.972,166.6088 C983.972,166.6088 1014.021,173.2048 1019.885,233.0598 C1025.748,292.9158 1029.413,326.8748 1019.885,310.2608 C1010.357,293.6488 952.456,166.6088 952.456,166.6088 Z" id="Stroke-475" stroke-width="2"></path>
                <path d="M1023.0654,148.6088 C1023.0654,143.0688 1018.5744,138.5778 1013.0334,138.5778 C1007.4934,138.5778 1003.0014,143.0688 1003.0014,148.6088 C1003.0014,154.1488 1007.4934,158.6398 1013.0334,158.6398 C1018.5744,158.6398 1023.0654,154.1488 1023.0654,148.6088 Z" id="Stroke-477"></path>
                <path d="M1016.996,148.6088 C1016.996,146.4208 1015.223,144.6458 1013.033,144.6458 C1010.845,144.6458 1009.071,146.4208 1009.071,148.6088 C1009.071,150.7968 1010.845,152.5718 1013.033,152.5718 C1015.223,152.5718 1016.996,150.7968 1016.996,148.6088 Z" id="Stroke-479" stroke-width="0.75"></path>
                <path d="M1055.293,381.1518 C1055.293,379.5308 1053.98,378.2158 1052.357,378.2158 C1050.736,378.2158 1049.422,379.5308 1049.422,381.1518 C1049.422,382.7738 1050.736,384.0878 1052.357,384.0878 C1053.98,384.0878 1055.293,382.7738 1055.293,381.1518 Z" id="Stroke-481" stroke-width="0.75"></path>
                <path d="M963.4482,60.0424 C963.4482,57.8544 961.6752,56.0794 959.4852,56.0794 C957.2972,56.0794 955.5232,57.8544 955.5232,60.0424 C955.5232,62.2304 957.2972,64.0054 959.4852,64.0054 C961.6752,64.0054 963.4482,62.2304 963.4482,60.0424 Z" id="Stroke-483" stroke-width="0.75"></path>
                <path d="M1060.3066,381.1518 C1060.3066,376.7618 1056.7476,373.2038 1052.3576,373.2038 C1047.9676,373.2038 1044.4096,376.7618 1044.4096,381.1518 C1044.4096,385.5428 1047.9676,389.1008 1052.3576,389.1008 C1056.7476,389.1008 1060.3066,385.5428 1060.3066,381.1518 Z" id="Stroke-485"></path>
                <path d="M969.5175,60.0424 C969.5175,54.5024 965.0265,50.0114 959.4855,50.0114 C953.9455,50.0114 949.4545,54.5024 949.4545,60.0424 C949.4545,65.5824 953.9455,70.0734 959.4855,70.0734 C965.0265,70.0734 969.5175,65.5824 969.5175,60.0424 Z" id="Stroke-487"></path>
                <path d="M915.4619,19.601 C915.4619,19.601 885.6659,15.672 879.1309,14.755 C872.5969,13.838 835.4519,0.196 835.1079,11.66 C834.7639,23.124 833.5029,24.156 846.4579,25.302 C859.4119,26.449 902.9629,32.402 902.9629,32.402" id="Stroke-489" stroke-width="2"></path>
                <path d="M857.9814,9.2631 C857.9214,8.6791 857.5784,2.8321 852.5344,3.1761 C847.4894,3.5201 839.5794,-1.5239 835.5664,0.9971 C831.5534,3.5201 827.8854,11.2011 824.3324,13.3791 C820.7774,15.5581 818.4844,16.0311 819.9754,19.7491 C821.4654,23.4681 834.9094,16.4751 834.9094,16.4751" id="Stroke-491" stroke-width="2"></path>
                <path d="M834.9091,18.3647 C834.9091,18.3647 822.9561,22.6657 821.9241,24.2707 C820.8921,25.8757 820.7771,29.6587 825.2491,28.7417 C829.7201,27.8247 836.3691,27.9927 839.8081,28.8837 C843.2481,29.7737 849.6531,30.8257 850.5781,25.7137" id="Stroke-493" stroke-width="2"></path>
                <path d="M857.9814,26.561 L844.2794,31.837 C844.2794,31.837 832.4714,39.632 833.7324,41.925 C834.9934,44.218 835.9564,49.034 835.9564,49.034 C835.9564,49.034 849.7824,48.001 851.5024,46.97 C853.2214,45.938 890.9274,30.781 890.9274,30.781" id="Stroke-495" stroke-width="2"></path>
                <path d="M848.4911,47.7045 C848.4911,47.7045 844.9681,52.9315 846.9161,58.8925 C848.8651,64.8535 867.3461,59.1915 867.3461,59.1915 C867.3461,59.1915 865.5851,44.5165 882.6761,34.1065" id="Stroke-497" stroke-width="2"></path>
                <path d="M845.4511,67.603 L853.1071,61.689" id="Stroke-499" stroke-width="2"></path>
                <path d="M864.1806,84.3588 L873.1906,78.9818" id="Stroke-501" stroke-width="2"></path>
                <path d="M993.6406,172.6108 C988.9466,173.7668 987.1436,174.3678 982.5836,175.8428 C974.8316,178.3528 967.2856,181.3158 959.9726,184.7018" id="Stroke-503" stroke-width="2"></path>
                <path d="M932.3242,201.4077 C876.6422,238.8297 840.0052,302.4037 840.0052,374.5357 C840.0052,489.6577 933.3292,582.9817 1048.4512,582.9817 C1163.5722,582.9817 1256.8972,489.6577 1256.8972,374.5357 C1256.8972,259.4137 1163.5722,166.0897 1048.4512,166.0897 C1046.2722,166.0897 1042.8572,166.0227 1040.6952,166.0897" id="Stroke-505" stroke-width="2"></path>
                <path d="M1014.4453,204.8676 C1000.8763,207.5716 987.8793,211.8636 975.6553,217.5416" id="Stroke-507" stroke-width="2"></path>
                <path d="M949.332,232.7153 C904.655,263.9983 875.442,315.8553 875.442,374.5343 C875.442,470.0843 952.9,547.5433 1048.451,547.5433 C1144.001,547.5433 1221.46,470.0843 1221.46,374.5343 C1221.46,279.2563 1144.441,201.9663 1049.267,201.5283" id="Stroke-509"></path>
                <path d="M1017.3212,215.2856 C1004.3672,217.8026 991.9652,221.8606 980.3102,227.2626" id="Stroke-511" stroke-width="2"></path>
                <path d="M953.7841,242.7709 C912.8621,272.2229 886.2171,320.2679 886.2171,374.5359 C886.2171,464.1349 958.8511,536.7699 1048.4511,536.7699 C1138.0511,536.7699 1210.6841,464.1349 1210.6841,374.5359 C1210.6841,285.8949 1139.5971,213.8579 1051.3211,212.3269" id="Stroke-513" stroke-width="2"></path>
                <path d="M403.8818,442.5375 C408.2528,430.2395 411.4728,417.3965 413.4088,404.1375" id="Stroke-515" stroke-width="2"></path>
                <path d="M387.4911,479.2406 C388.2971,477.8756 389.0871,476.4996 389.8611,475.1136" id="Stroke-517" stroke-width="2"></path>
                <path d="M415.3847,381.0658 C415.4507,378.8968 415.4857,376.7198 415.4857,374.5358 C415.4857,259.8038 322.4767,166.7958 207.7447,166.7958 C93.0137,166.7958 0.0057,259.8038 0.0057,374.5358 C0.0057,489.2668 93.0137,582.2758 207.7447,582.2758 C279.5087,582.2758 344.1167,544.8008 381.4387,489.4678" id="Stroke-519" stroke-width="2"></path>
                <path d="M380.663,380.1957 C380.724,378.3157 380.754,376.4287 380.754,374.5357 C380.754,278.9857 303.295,201.5267 207.745,201.5267 C112.195,201.5267 34.736,278.9857 34.736,374.5357 C34.736,470.0857 112.195,547.5447 207.745,547.5447 C269.767,547.5447 324.166,514.9087 354.707,465.8727" id="Stroke-521"></path>
                <path d="M368.8593,437.7045 C373.1073,426.8795 376.2953,415.5215 378.2963,403.7605" id="Stroke-523"></path>
                <path d="M369.8876,380.0317 C369.9486,378.2077 369.9796,376.3757 369.9796,374.5357 C369.9796,284.9357 297.3446,212.3017 207.7446,212.3017 C118.1456,212.3017 45.5116,284.9357 45.5116,374.5357 C45.5116,464.1357 118.1456,536.7697 207.7446,536.7697 C264.7336,536.7697 314.8596,507.3857 343.7976,462.9417" id="Stroke-525" stroke-width="2"></path>
                <path d="M355.769,379.5531 C355.825,377.8871 355.852,376.2151 355.852,374.5351 C355.852,292.7381 289.542,226.4281 207.745,226.4281 C125.948,226.4281 59.638,292.7381 59.638,374.5351 C59.638,456.3331 125.948,522.6431 207.745,522.6431 C258.15,522.6431 302.674,497.4641 329.425,458.9971" id="Stroke-527" stroke-width="0.75"></path>
                <path d="M358.0458,435.7192 C362.1908,425.5462 365.3338,414.8592 367.3508,403.7782" id="Stroke-529" stroke-width="2"></path>
                <path d="M217.4536,384.1196 C217.4536,389.4126 213.1626,393.7036 207.8696,393.7036 C202.5766,393.7036 198.2856,389.4126 198.2856,384.1196 C198.2856,378.8266 202.5766,374.5356 207.8696,374.5356 C213.1626,374.5356 217.4536,378.8266 217.4536,384.1196 Z" id="Stroke-531" stroke-width="0.75"></path>
                <path d="M220.2353,425.0697 C216.3203,426.2497 212.1693,426.8837 207.8693,426.8837 C190.6543,426.8837 175.8163,416.7127 169.0343,402.0507" id="Stroke-533" stroke-width="0.75"></path>
                <path d="M166.958,396.6108 C165.753,392.6598 165.105,388.4648 165.105,384.1198 C165.105,360.5018 184.251,341.3548 207.87,341.3548 C228.536,341.3548 245.778,356.0138 249.766,375.5018" id="Stroke-535" stroke-width="0.75"></path>
                <path d="M868.6855,58.5522 C868.6855,58.5522 875.8925,52.6562 882.2895,60.1972 C887.7035,66.5762 884.7555,72.0542 882.6755,74.0282" id="Stroke-537"></path>
                <path d="M875.1855,51.6352 C875.3295,51.5042 882.4205,49.0332 887.3145,55.0172 C892.7205,61.6262 890.7295,67.1892 890.7295,67.1892" id="Stroke-539"></path>
                <path d="M890.2763,37.3764 C890.4203,37.2454 897.5113,34.7744 902.4063,40.7574 C907.8113,47.3664 905.8203,52.9304 905.8203,52.9304" id="Stroke-541"></path>
                <path d="M1065.2373,395.7885 L1049.7583,249.3585 C1049.7583,249.3585 1044.8443,197.6585 1033.9553,173.1345 C1023.0653,148.6085 1023.0303,149.4105 1023.0303,149.4105" id="Stroke-543"></path>
                <path d="M1016.996,139.392 C1016.996,139.392 1004.917,115.539 998.44,105.042 C991.964,94.546 977.712,65.931 894.518,63.55" id="Stroke-545"></path>
                <path d="M886.2451,71.4965 C886.2451,71.4965 880.7331,77.1125 886.2451,89.0105 C891.7571,100.9085 1029.5391,371.9505 1029.5391,371.9505 C1029.5391,371.9505 1038.4601,389.6005 1048.4511,392.1625" id="Stroke-547"></path>
                <path d="M1001.6767,154.5571 C1002.1247,155.3891 1026.1767,187.7221 1032.7497,234.0341 C1039.3237,280.3451 1042.9207,316.4971 1044.4087,343.0891 C1045.8967,369.6811 1040.1997,371.4741 1023.0307,338.6081 C1005.8597,305.7421 935.6457,152.7641 928.1757,134.8371 C920.7057,116.9111 924.5907,113.3251 935.0477,114.5201 C945.5057,115.7151 961.9387,118.4041 961.9387,118.4041 C961.9387,118.4041 983.2687,120.4001 1001.6767,154.5571 Z" id="Stroke-549"></path>
                <path d="M521.3339,85.0385 C521.3339,85.0385 543.3779,103.6015 556.1399,110.5625 C568.9019,117.5235 573.5429,125.3135 553.4879,122.6625 C533.4339,120.0105 520.0079,113.3805 504.5939,108.5735 C489.1799,103.7675 478.7439,99.1375 442.4389,108.5735 C406.4739,117.9235 338.6159,113.8885 317.1039,61.1765" id="Stroke-551"></path>
                <path d="M854.9081,84.3588 C854.9081,84.3588 852.9711,78.9848 846.7711,78.9848 C842.2361,78.9848 836.7841,79.2098 833.8271,79.3488 C832.3261,79.4208 830.8701,79.7938 829.5201,80.4548 C826.0781,82.1398 819.6891,85.6598 819.5761,88.6008 C819.4211,92.6298 829.4941,98.9838 834.0651,99.2948 C838.6371,99.6038 853.9011,99.6808 854.9081,99.6038 C855.9161,99.5268 859.3251,99.2158 858.3181,95.0328 C858.2541,94.7658 858.1831,94.4908 858.1091,94.2078" id="Stroke-553" stroke-width="0.75"></path>
                <path d="M857.6562,92.5844 C857.5312,92.1604 857.4012,91.7304 857.2682,91.3024 C856.6952,89.4524 855.9142,87.2294 855.4502,85.9084" id="Stroke-555" stroke-width="0.75"></path>
                <path d="M845.6581,85.103 L838.8901,85.103 C838.3321,84.19 837.3341,83.575 836.1841,83.575 C834.4281,83.575 833.0031,84.999 833.0031,86.756 C833.0031,88.513 834.4281,89.938 836.1841,89.938 C837.3341,89.938 838.3321,89.323 838.8901,88.41 L845.6581,88.41 C846.5671,88.41 847.3111,87.666 847.3111,86.756 C847.3111,85.847 846.5671,85.103 845.6581,85.103 Z" id="Stroke-557" stroke-width="0.75"></path>
                <path d="M839.33,85.103 L836.49,85.103" id="Stroke-559" stroke-width="0.75" stroke-linecap="round" stroke-linejoin="round"></path>
                <path d="M839.33,88.3832 L836.49,88.3832" id="Stroke-561" stroke-width="0.75" stroke-linecap="round" stroke-linejoin="round"></path>
                <path d="M850.5654,92.2875 L843.7974,92.2875 C843.2394,91.3745 842.2414,90.7605 841.0914,90.7605 C839.3354,90.7605 837.9104,92.1835 837.9104,93.9415 C837.9104,95.6985 839.3354,97.1235 841.0914,97.1235 C842.2414,97.1235 843.2394,96.5085 843.7974,95.5955 L850.5654,95.5955 C851.4744,95.5955 852.2184,94.8505 852.2184,93.9415 C852.2184,93.0315 851.4744,92.2875 850.5654,92.2875 Z" id="Stroke-563" stroke-width="0.75"></path>
                <path d="M844.2382,92.2875 L841.3972,92.2875" id="Stroke-565" stroke-width="0.75" stroke-linecap="round" stroke-linejoin="round"></path>
                <path d="M844.2382,95.5688 L841.3972,95.5688" id="Stroke-567" stroke-width="0.75" stroke-linecap="round" stroke-linejoin="round"></path>
                <path d="M846.9794,85.7651 C846.9614,85.7471 849.9754,86.4661 855.6464,84.0591 C861.3184,81.6521 862.2774,81.1011 862.2774,81.1011" id="Stroke-569" stroke-width="0.5"></path>
                <path d="M847.3115,87.3852 C847.3115,87.3852 850.5865,87.8132 856.1775,85.4672 C861.7675,83.1202 862.9105,82.2842 862.9105,82.2842" id="Stroke-571" stroke-width="0.5"></path>
                <path d="M852.2187,93.3754 C852.2067,93.3544 854.8497,94.0294 860.5217,91.6224 L866.1937,89.2154" id="Stroke-573" stroke-width="0.5"></path>
                <path d="M852.1855,94.9477 C852.1855,94.9477 855.4615,95.3767 861.0515,93.0297 C866.6415,90.6837 866.553582,90.5387 866.553582,90.5387" id="Stroke-575" stroke-width="0.5"></path>
                <path d="M1006.623,347.5893 C1002.048,355.0443 999.41,363.8163 999.41,373.2033 C999.41,400.2873 1021.366,422.2433 1048.451,422.2433 C1075.535,422.2433 1097.491,400.2873 1097.491,373.2033 C1097.491,350.7573 1082.412,331.8333 1061.83,326.0103" id="Stroke-577" stroke-width="2"></path>
                <path d="M1000.8818,336.3295 C992.9748,346.5155 988.2668,359.3085 988.2668,373.2035 C988.2668,406.4415 1015.2118,433.3885 1048.4508,433.3885 C1081.6908,433.3885 1108.6358,406.4415 1108.6358,373.2035 C1108.6358,344.1955 1088.1148,319.9815 1060.7988,314.2865" id="Stroke-579" stroke-width="2"></path>
                <path d="M1089.6465,346.5854 C1089.6465,346.5854 1074.0985,352.8014 1077.0165,360.0324 C1079.9345,367.2634 1095.2525,358.5204 1095.2525,358.5204" id="Stroke-581" stroke-width="2"></path>
                <path d="M1084.9863,357.5268 C1084.9863,356.2658 1083.9643,355.2438 1082.7033,355.2438 C1081.4423,355.2438 1080.4203,356.2658 1080.4203,357.5268 C1080.4203,358.7888 1081.4423,359.8108 1082.7033,359.8108 C1083.9643,359.8108 1084.9863,358.7888 1084.9863,357.5268 Z" id="Stroke-583"></path>
                <path d="M1041.4844,421.6557 C1041.4844,421.6557 1047.7684,406.1357 1040.5314,403.2327 C1033.2944,400.3297 1028.9934,417.4347 1028.9934,417.4347" id="Stroke-585" stroke-width="2"></path>
                <path d="M1036.8184,410.7172 C1037.7284,411.5902 1039.1734,411.5612 1040.0474,410.6512 C1040.9214,409.7412 1040.8914,408.2952 1039.9814,407.4222 C1039.0714,406.5492 1037.6264,406.5782 1036.7534,407.4882 C1035.8794,408.3982 1035.9094,409.8432 1036.8184,410.7172 Z" id="Stroke-587"></path>
                <path d="M1088.6162,401.6723 C1088.6162,401.6723 1076.5762,390.0363 1071.1762,395.6613 C1065.7742,401.2863 1080.0272,411.6763 1080.0272,411.6763" id="Stroke-589" stroke-width="2"></path>
                <path d="M1076.7266,401.9047 C1077.8766,401.3877 1078.3906,400.0367 1077.8726,398.8857 C1077.3566,397.7357 1076.0046,397.2217 1074.8546,397.7387 C1073.7046,398.2567 1073.1906,399.6077 1073.7066,400.7587 C1074.2246,401.9087 1075.5766,402.4227 1076.7266,401.9047 Z" id="Stroke-591"></path>
                <path d="M1005.6513,395.3383 C1005.6513,395.3383 1021.6523,390.4073 1019.3323,382.9633 C1017.0113,375.5193 1001.0343,382.9873 1001.0343,382.9873" id="Stroke-593" stroke-width="2"></path>
                <path d="M1011.1845,384.8119 C1011.0815,386.0689 1012.0185,387.1709 1013.2755,387.2739 C1014.5325,387.3759 1015.6345,386.4409 1015.7375,385.1829 C1015.8395,383.9259 1014.9035,382.8249 1013.6465,382.7219 C1012.3895,382.6199 1011.2885,383.5549 1011.1845,384.8119 Z" id="Stroke-595"></path>
                <path d="M241.9619,373.0561 C241.9619,373.0561 279.3819,390.0731 312.8159,388.6671 C346.2509,387.2621 485.6969,394.0051 501.9479,395.6921 C518.1999,397.3771 542.3619,398.2201 552.1959,415.0771 C562.0299,431.9361 576.6399,461.7171 576.6399,461.7171 C576.6399,461.7171 591.8099,487.9971 558.9389,490.3101" id="Stroke-597" stroke-width="0.75"></path>
                <path d="M428.1181,381.5405 L428.1181,369.8455 C428.1181,368.3525 429.3481,367.1535 430.8411,367.1925 L467.4041,368.1485 C467.4041,368.1485 472.6461,368.3725 475.2901,360.8775" id="Stroke-599" stroke-width="2"></path>
                <path d="M897.2656,129.5629 L873.4126,140.7059 C872.4896,141.1369 872.0936,142.2389 872.5336,143.1599 L873.6836,145.5709 C874.1196,146.4859 875.2146,146.8739 876.1296,146.4379 L900.0106,135.0759" id="Stroke-601" stroke-width="2"></path>
                <path d="M882.1533,144.3129 L883.1653,146.5979 C883.5133,147.3859 884.4323,147.7469 885.2243,147.4049 L892.2463,144.3789 C893.0193,144.0459 893.9183,144.3809 894.2843,145.1389 L895.5203,147.6979 C895.8923,148.4659 896.8093,148.7979 897.5873,148.4439 L904.9943,145.0749" id="Stroke-603" stroke-width="2"></path>
                <path d="M889.0468,133.4018 L865.6218,84.3588" id="Stroke-605" stroke-width="2"></path>
                <path d="M879.0878,138.1479 L873.8918,127.6539" id="Stroke-607" stroke-width="2"></path>
                <path d="M352.666,403.7778 C352.666,403.7778 349.666,420.7328 342.314,432.8568" id="Stroke-609"></path>
            </g>
        </g>
    </g>
</svg>