<?xml version="1.0" encoding="UTF-8"?>
<svg width="477px" height="52px" viewBox="0 0 477 52" version="1.1" xmlns="http://www.w3.org/2000/svg" xmlns:xlink="http://www.w3.org/1999/xlink">
    <!-- Generator: Sketch 51.2 (57519) - http://www.bohemiancoding.com/sketch -->
    <title>pag-stripes</title>
    <desc>Created with Sketch.</desc>
    <defs></defs>
    <g id="Page-1" stroke="none" stroke-width="1" fill="none" fill-rule="evenodd" opacity="0.61">
        <g id="pag-stripes" fill="#5DD0FA">
            <path d="M28.564,0 L33.22,2.68 L4.659,52 L0,49.316 L28.564,0 Z M41.332,0 L45.988,2.68 L17.427,52 L12.771,49.32 L41.332,0 Z M54.1,0 L58.756,2.68 L30.2,52 L25.544,49.32 L54.1,0 Z M66.868,0 L71.524,2.68 L42.963,52 L38.307,49.32 L66.868,0 Z M79.636,0 L84.292,2.68 L55.732,52 L51.076,49.32 L79.636,0 Z M92.404,0 L97.06,2.68 L68.5,52 L63.844,49.32 L92.404,0 Z M105.172,0 L109.828,2.68 L81.268,52 L76.612,49.32 L105.172,0 Z M117.272,0 L121.928,2.68 L93.364,52 L88.708,49.32 L117.272,0 Z M130.041,0 L134.696,2.68 L106.132,52 L101.476,49.32 L130.041,0 Z M142.809,0 L147.465,2.68 L118.9,52 L114.244,49.32 L142.809,0 Z M155.577,0 L160.233,2.68 L131.668,52 L127.013,49.32 L155.577,0 Z M168.345,0 L173.001,2.68 L144.437,52 L139.781,49.32 L168.345,0 Z" id="Rectangle_2_copy_4"></path>
            <path d="M332.564,0 L337.22,2.68 L308.659,52 L304,49.316 L332.564,0 Z M345.332,0 L349.988,2.68 L321.427,52 L316.771,49.32 L345.332,0 Z M358.1,0 L362.756,2.68 L334.2,52 L329.544,49.32 L358.1,0 Z M370.868,0 L375.524,2.68 L346.963,52 L342.307,49.32 L370.868,0 Z M383.636,0 L388.292,2.68 L359.732,52 L355.076,49.32 L383.636,0 Z M396.404,0 L401.06,2.68 L372.5,52 L367.844,49.32 L396.404,0 Z M409.172,0 L413.828,2.68 L385.268,52 L380.612,49.32 L409.172,0 Z M421.272,0 L425.928,2.68 L397.364,52 L392.708,49.32 L421.272,0 Z M434.041,0 L438.696,2.68 L410.132,52 L405.476,49.32 L434.041,0 Z M446.809,0 L451.465,2.68 L422.9,52 L418.244,49.32 L446.809,0 Z M459.577,0 L464.233,2.68 L435.668,52 L431.013,49.32 L459.577,0 Z M472.345,0 L477.001,2.68 L448.437,52 L443.781,49.32 L472.345,0 Z" id="Rectangle_2_copy_4"></path>
            <path d="M180.564,0 L185.22,2.68 L156.659,52 L152,49.316 L180.564,0 Z M193.332,0 L197.988,2.68 L169.427,52 L164.771,49.32 L193.332,0 Z M206.1,0 L210.756,2.68 L182.2,52 L177.544,49.32 L206.1,0 Z M218.868,0 L223.524,2.68 L194.963,52 L190.307,49.32 L218.868,0 Z M231.636,0 L236.292,2.68 L207.732,52 L203.076,49.32 L231.636,0 Z M244.404,0 L249.06,2.68 L220.5,52 L215.844,49.32 L244.404,0 Z M257.172,0 L261.828,2.68 L233.268,52 L228.612,49.32 L257.172,0 Z M269.272,0 L273.928,2.68 L245.364,52 L240.708,49.32 L269.272,0 Z M282.041,0 L286.696,2.68 L258.132,52 L253.476,49.32 L282.041,0 Z M294.809,0 L299.465,2.68 L270.9,52 L266.244,49.32 L294.809,0 Z M307.577,0 L312.233,2.68 L283.668,52 L279.013,49.32 L307.577,0 Z M320.345,0 L325.001,2.68 L296.437,52 L291.781,49.32 L320.345,0 Z" id="Rectangle_2_copy_4"></path>
        </g>
    </g>
</svg>