<svg width="110" height="110" viewBox="0 0 110 110" fill="none" xmlns="http://www.w3.org/2000/svg">
<path d="M0 58.5895C0 56.6034 0 54.1208 0 52.1347C0 51.1417 0 50.6451 0.496596 49.6521C1.48979 40.7147 4.46937 32.2739 9.43533 24.826C18.3741 11.9165 30.2924 3.97217 45.6868 0.993042C47.6732 0.496521 49.6596 0.496521 51.646 0C53.6324 0 56.1154 0 58.1017 0C58.5983 0 58.5983 0 59.0949 0C65.5507 0.496521 72.0064 1.98608 77.9656 4.96521C101.306 15.8887 114.217 41.2112 108.755 66.5338C102.299 96.3251 72.0064 116.186 40.7209 108.242C20.3604 102.78 4.46937 85.4016 0.993192 64.5477C0.496596 62.5616 0.496596 60.5756 0 58.5895ZM89.3873 92.3529C103.789 79.4434 109.748 57.5964 102.299 37.7356C94.8499 17.3782 75.4826 3.97217 52.1426 4.96521C31.2856 5.46173 12.4149 19.8608 6.45575 40.2182C0.496596 61.0721 7.94554 81.4294 20.3604 91.8564C21.8502 90.8633 23.34 89.8703 25.3264 89.3738C26.8162 88.3807 28.8026 87.8842 30.2924 87.3877C32.7753 86.3947 34.7617 85.4016 37.2447 84.4086C38.7345 83.4155 40.7209 82.4225 42.2107 81.4294C43.7005 80.4364 44.6937 78.4503 44.6937 76.4642C44.6937 73.9816 44.6937 71.499 44.6937 69.5129C44.6937 69.0164 44.6936 69.0164 44.1971 68.5199C41.7141 66.0373 40.2243 62.5616 39.7277 58.5895C39.7277 58.093 39.2311 57.5964 39.2311 57.5964C36.2515 56.1069 34.7617 50.6451 36.7481 47.666C36.7481 47.666 36.7481 47.1695 37.2447 47.1695C37.7413 46.673 37.7413 46.1764 37.7413 45.6799C36.7481 40.7147 35.7549 35.7495 36.2515 30.2878C36.7481 24.826 39.2311 20.3574 44.6937 17.8748C49.6596 15.3921 55.1222 14.8956 60.5847 16.3852C62.5711 16.8817 64.0609 17.3782 65.0541 18.8678C64.5575 19.8608 65.0541 20.3574 65.5507 20.3574C70.0201 21.3504 72.503 23.833 73.9928 28.3017C74.4894 29.7913 74.986 31.2808 74.986 33.2669C74.986 37.7356 74.4894 42.2043 72.9996 46.673C72.9996 47.1695 72.9996 47.666 72.9996 47.666C74.986 50.1486 74.4894 55.1138 72.0064 57.5964C71.5098 57.5964 71.5098 58.093 71.0132 58.093C70.5166 58.093 70.0201 58.5895 70.0201 59.086C69.5235 62.5616 68.0337 66.0373 65.5507 68.5199C65.5507 68.5199 65.0541 69.0164 65.0541 69.5129C65.0541 71.499 65.0541 73.4851 65.0541 75.4712C65.0541 78.4503 66.0473 80.4364 68.5303 81.926C70.5166 82.919 72.503 83.912 74.4894 84.9051C79.952 87.3877 84.9179 88.8773 89.3873 92.3529Z" fill="#00D2FF"/>
</svg>
