<?xml version="1.0" encoding="UTF-8"?>
<svg width="96px" height="110px" viewBox="0 0 96 110" version="1.1" xmlns="http://www.w3.org/2000/svg" xmlns:xlink="http://www.w3.org/1999/xlink">
    <!-- Generator: Sketch 51.2 (57519) - http://www.bohemiancoding.com/sketch -->
    <title>sound-on</title>
    <desc>Created with Sketch.</desc>
    <defs></defs>
    <g id="Page-1" stroke="none" stroke-width="1" fill="none" fill-rule="evenodd">
        <g id="sound-on" transform="translate(0.000000, -1.000000)">
            <polygon id="Shape" fill="#000000" fill-rule="nonzero" opacity="0.49" points="48.491 111.01 0.991 83.51 0.991 28.5 48.491 0.99 95.991 28.5 95.991 83.51"></polygon>
            <path d="M48.123,32 C48.235,32.03 48.348,32.05 48.458,32.09 C49.1978891,32.3327417 49.7440626,32.9630898 49.879,33.73 C49.9549206,34.0443496 49.9931893,34.3666124 49.993,34.69 C49.9976667,48.76 49.9976667,62.83 49.993,76.9 C50.0232137,77.6163273 49.8609184,78.3276641 49.523,78.96 C49.2537539,79.4905646 48.7515209,79.864371 48.166,79.97 L48.12,80 L47.531,80 C46.6586562,79.7775594 45.873976,79.2965028 45.28,78.62 C44.799,78.14 44.301,77.67 43.811,77.2 L38.022,71.62 C35.6886667,69.37 33.3553333,67.12 31.022,64.87 C30.9375043,64.7836406 30.8207696,64.7365117 30.7,64.74 C28.756,64.75 26.813,64.74 24.869,64.74 C24.324,64.74 23.778,64.75 23.232,64.74 C22.3475698,64.7582184 21.5395785,64.2408828 21.186,63.43 C21.1075032,63.2416714 21.0429951,63.0478128 20.993,62.85 L20.993,49.11 C21.0454421,48.9055362 21.1122754,48.7050363 21.193,48.51 C21.5621373,47.6840463 22.3992739,47.1682749 23.303,47.21 C25.774,47.2 28.245,47.21 30.716,47.2 C30.815556,47.2022472 30.9129059,47.1705027 30.992,47.11 C34.2206667,44.01 37.4473333,40.9 40.672,37.78 C42.3353333,36.18 43.998,34.5766667 45.66,32.97 C46.0031952,32.631598 46.411411,32.3662577 46.86,32.19 C47.088,32.11 47.329,32.06 47.56,32 L48.112,32 L48.123,32 Z M79,56.6 C78.976,56.94 78.949,57.29 78.927,57.64 C78.8146775,59.3836677 78.5009234,61.1084766 77.992,62.78 C77.1087282,65.7157511 75.6655143,68.4527638 73.742,70.84 C71.7975688,73.2688466 69.4053612,75.3022401 66.695,76.83 C66.1649651,77.1430929 65.6181424,77.4268532 65.057,77.68 C63.9536603,78.1382439 62.6862597,77.6321715 62.202,76.54 C61.7167453,75.4502086 62.2017105,74.1730443 63.288,73.68 C64.429546,73.1538347 65.5113942,72.5068043 66.515,71.75 C69.129067,69.8434197 71.2291582,67.3179501 72.627,64.4 C73.4473381,62.6923689 74.0101163,60.8726068 74.297,59 C74.5896948,57.1328191 74.6102417,55.2330747 74.358,53.36 C73.929793,50.0954806 72.6686848,46.9960885 70.696,44.36 C68.8238407,41.8285275 66.3733305,39.7815784 63.549,38.39 C62.9523397,38.1326294 62.4881979,37.6406319 62.266,37.03 C62.0722027,36.4406194 62.1393304,35.7965292 62.4504944,35.2597761 C62.7616583,34.723023 63.287237,34.3447038 63.895,34.22 C64.3923078,34.1221522 64.9079519,34.1888455 65.364,34.41 C67.7588211,35.586576 69.9471782,37.1434164 71.844,39.02 C75.1272533,42.2244203 77.4093229,46.3133166 78.413,50.79 C78.7350691,52.2057818 78.9222392,53.6489002 78.972,55.1 C78.972,55.18 78.99,55.25 79,55.33 L79,56.6 Z M70.067,56.38 C70.0133678,59.5839394 69.0468862,62.7060983 67.281,65.38 C65.6627155,67.8750715 63.4443363,69.9242872 60.829,71.34 C60.4313226,71.6063126 59.9697724,71.7616586 59.492,71.79 C58.4410181,71.8247415 57.51136,71.113482 57.27,70.09 C57.0380234,69.0894123 57.5386565,68.0631145 58.47,67.63 C59.3181632,67.2115002 60.1120402,66.6909802 60.834,66.08 C62.9990725,64.3121539 64.5347374,61.8918507 65.212,59.18 C66.265511,55.0155515 65.194809,50.5995136 62.351,47.38 C61.2532687,46.1237509 59.9258526,45.0885631 58.44,44.33 C57.6012891,43.9058554 57.130743,42.990193 57.2741685,42.0613422 C57.417594,41.1324914 58.142417,40.4014081 59.07,40.25 C59.5744897,40.1606196 60.0943634,40.2489733 60.541,40.5 C62.6788964,41.6131033 64.5721454,43.1432076 66.109,45 C67.8395274,47.0880096 69.053061,49.5548198 69.651,52.2 C69.9519763,53.5723785 70.0915893,54.9752207 70.067,56.38 Z M61.149,55.98 C61.1035138,59.9970966 58.3617696,63.4812169 54.468,64.47 C53.6915967,64.7211429 52.839965,64.521915 52.2555381,63.952424 C51.6711111,63.3829329 51.4499071,62.5367432 51.6808702,61.7540997 C51.9118333,60.9714561 52.5570173,60.380943 53.357,60.22 C55.3214418,59.7302877 56.6932876,57.9567136 56.6735425,55.9322482 C56.6537974,53.9077829 55.2476197,52.1613034 53.274,51.71 C52.2561827,51.4961373 51.5319965,50.5919192 51.5456352,49.5519657 C51.559274,48.5120122 52.3069243,47.6270969 53.33,47.44 C53.8221223,47.3563192 54.3276336,47.4046274 54.795,47.58 C57.9032461,48.4756766 60.2673615,51.0076968 60.948,54.17 C61.0633396,54.7682951 61.1451339,55.3725717 61.193,55.98 L61.149,55.98 Z" id="Shape" fill="#60D2FA"></path>
        </g>
    </g>
</svg>