<?xml version="1.0" encoding="UTF-8"?>
<svg width="477px" height="477px" viewBox="0 0 477 477" version="1.1" xmlns="http://www.w3.org/2000/svg" xmlns:xlink="http://www.w3.org/1999/xlink">
    <!-- Generator: Sketch 51.2 (57519) - http://www.bohemiancoding.com/sketch -->
    <title>menu-button</title>
    <desc>Created with Sketch.</desc>
    <defs></defs>
    <g id="Page-1" stroke="none" stroke-width="1" fill-rule="evenodd">
        <g id="menu-button" fill-rule="nonzero">
            <path d="M365.499,222.477 L111.239,222.477 C102.467,222.477 95.348,229.596 95.348,238.368 C95.348,247.108 102.467,254.259 111.239,254.259 L365.499,254.259 C374.239,254.259 381.39,247.108 381.39,238.368 C381.39,229.597 374.239,222.477 365.499,222.477 Z" id="Shape"></path>
            <path d="M365.499,127.13 L111.239,127.13 C102.467,127.13 95.348,134.249 95.348,143.021 C95.348,151.793 102.467,158.912 111.239,158.912 L365.499,158.912 C374.239,158.912 381.39,151.793 381.39,143.021 C381.39,134.249 374.239,127.13 365.499,127.13 Z" id="Shape"></path>
            <path d="M365.499,317.825 L111.239,317.825 C102.467,317.825 95.348,324.976 95.348,333.716 C95.348,342.456 102.467,349.607 111.239,349.607 L365.499,349.607 C374.239,349.607 381.39,342.456 381.39,333.716 C381.39,324.976 374.239,317.825 365.499,317.825 Z" id="Shape"></path>
        </g>
    </g>
</svg>