<?xml version="1.0" encoding="UTF-8"?>
<svg width="404px" height="191px" viewBox="0 0 404 191" version="1.1" xmlns="http://www.w3.org/2000/svg" xmlns:xlink="http://www.w3.org/1999/xlink">
    <!-- Generator: Sketch 49.3 (51167) - http://www.bohemiancoding.com/sketch -->
    <title>Vector Smart Object6.ai</title>
    <desc>Created with Sketch.</desc>
    <defs>
        <polygon id="path-1" points="0.7609 0.4076 34.9012632 0.4076 34.9012632 34 0.7609 34"></polygon>
    </defs>
    <g id="Page-1" stroke="none" stroke-width="1" fill="none" fill-rule="evenodd">
        <g id="Vector-Smart-Object6.ai" transform="translate(2.000000, 2.000000)">
            <path d="M169.2387,27.6872 C222.5767,13.7472 270.1737,20.1302 270.1737,20.1302 C270.1737,20.3692 274.1737,23.8912 274.1737,23.8912 C274.1737,23.8912 277.6367,33.6242 277.7567,39.9522 C277.7567,39.9522 203.8367,22.1362 193.2397,59.2752 C184.2157,90.9042 212.5077,139.7322 221.1017,153.5242 C222.0917,155.1142 220.9037,157.1642 219.0307,157.0912 L176.3357,155.4212 L160.1357,153.4102" id="Stroke-1" stroke="#00D2FF" stroke-width="5.563"></path>
            <path d="M101.2694,17.9192 C101.2694,17.9192 99.5054,18.3942 100.9304,20.9042 C102.3544,23.4142 111.5124,39.5582 127.5204,37.3192 C143.5294,35.0812 150.3134,30.9432 157.0964,34.1992 C163.8794,37.4552 174.0684,41.9772 184.7054,39.2192 C190.1994,37.7942 193.8624,36.3022 192.9134,33.3852 C191.9634,30.4682 188.5714,30.4682 185.5864,30.9432 C182.6024,31.4182 174.1234,30.8762 169.2384,27.6872 C164.3544,24.4992 164.3544,23.3462 161.8454,24.2282 C159.3344,25.1092 128.0634,35.1492 116.2604,27.5512 C104.4574,19.9542 102.7614,17.3092 101.2694,17.9192 Z" id="Stroke-3" stroke="#00D2FF" stroke-width="5.563"></path>
            <path d="M154.1298,33.2243 C154.1298,33.2243 137.1538,43.2193 137.0598,44.6233 C136.9668,46.0283 154.6618,62.6003 156.4408,88.5353 C158.2198,114.4703 158.4068,120.8723 158.4068,120.8723" id="Stroke-5" stroke="#00D2FF" stroke-width="5.563"></path>
            <path d="M77.4574,116.7541 C80.4124,118.0501 87.1574,119.1501 98.6734,118.9641 C110.1894,118.7761 147.1714,118.7761 167.2074,122.0531 C187.2444,125.3301 184.3954,124.8131 188.7424,131.3221 C191.3304,135.1991 195.5774,144.1501 195.5774,144.1501 C195.5774,144.1501 201.1014,153.9801 190.3334,153.8861 C179.5664,153.7931 147.3774,155.1331 116.1814,146.9581 C87.3794,139.4101 59.9074,130.4961 53.5704,125.2801 C53.1054,124.8991 53.3884,124.1431 53.9904,124.1491 C56.4404,124.1721 60.9844,124.0601 60.8484,122.8961 C60.6604,121.3041 60.4784,117.1851 60.8504,116.5291 C61.2224,115.8741 66.4654,112.1291 69.1804,112.5971 C69.1804,112.5971 73.4574,114.9981 77.4574,116.7541 Z" id="Stroke-7" stroke="#00D2FF" stroke-width="5.563"></path>
            <path d="M95.7753,132.8059 C95.7753,132.8059 91.7723,131.8749 91.5863,129.1759 C91.4003,126.4769 98.4743,126.4769 117.1843,126.4769 C135.8933,126.4769 148.2733,127.0349 149.2043,129.0829 C150.1353,131.1309 147.1563,135.1329 144.8293,136.8089 C142.5023,138.4849 140.1753,140.4389 127.8883,138.8569 C115.6013,137.2749 95.7753,132.8059 95.7753,132.8059 Z" id="Stroke-9" stroke="#00D2FF" stroke-width="5.563"></path>
            <path d="M283.5692,10.0349 C283.4372,10.0349 276.2512,16.6039 276.2512,16.6039 C276.2512,16.6039 274.3772,19.0519 276.7352,21.4099 C279.0942,23.7689 281.6302,21.1899 281.6302,21.1899 L288.3312,14.7529 C288.3312,14.7529 289.5212,12.4159 287.6262,10.5199 C285.7302,8.6239 283.5692,10.0349 283.5692,10.0349 Z" id="Stroke-11" stroke="#00D2FF" stroke-width="5.563"></path>
            <path d="M286.2147,9.5305 L290.8887,4.7445 C290.8887,4.7445 291.9907,3.8625 293.0047,4.7445 C294.0187,5.6265 293.5777,6.5955 293.0047,7.2575 C292.4317,7.9185 288.4097,11.6515 288.4097,11.6515" id="Stroke-13" stroke="#00D2FF" stroke-width="5.563"></path>
            <path d="M290.8885,9.4616 L300.6315,11.3576 C300.6315,11.3576 312.7565,13.3416 318.9735,25.9076 C325.1905,38.4726 327.1315,42.6236 327.1315,42.6236 C327.1315,42.6236 333.7515,55.1296 335.2235,77.0766 C336.6955,99.0236 339.6375,124.0366 339.2695,124.0366 C338.9025,124.0366 327.7435,123.3006 323.5765,115.9446 C319.4075,108.5876 278.3315,25.9486 278.3315,25.9486 L276.7355,21.4106" id="Stroke-15" stroke="#00D2FF" stroke-width="5.563"></path>
            <path d="M302.6122,51.3308 C302.6122,51.3308 301.5282,49.2408 303.7732,49.5498 C306.0182,49.8598 312.5992,51.3308 312.5992,51.3308 C312.5992,51.3308 322.1222,53.4208 323.9802,72.3888 C325.8382,91.3568 326.9992,102.1188 323.9802,96.8538 C320.9612,91.5888 302.6122,51.3308 302.6122,51.3308 Z" id="Stroke-17" stroke="#00D2FF" stroke-width="5.563"></path>
            <path d="M290.8885,4.7444 C290.8885,4.7444 281.4465,3.4994 279.3745,3.2084 C277.3045,2.9174 265.5335,-1.4056 265.4245,2.2274 C265.3155,5.8604 264.9155,6.1874 269.0215,6.5514 C273.1265,6.9144 286.9275,8.8004 286.9275,8.8004" id="Stroke-19" stroke="#00D2FF" stroke-width="5.563"></path>
            <path d="M268.702,19.9558 L282.376,8.1888" id="Stroke-21" stroke="#00D2FF" stroke-width="5.563"></path>
            <path d="M274.6376,25.2658 L277.4926,23.5618" id="Stroke-23" stroke="#00D2FF" stroke-width="5.563"></path>
            <path d="M315.663,53.2326 C314.176,53.5986 313.604,53.7896 312.159,54.2566 C309.703,55.0526 307.311,55.9916 304.994,57.0646" id="Stroke-25" stroke="#00D2FF" stroke-width="5.563"></path>
            <path d="M296.2323,62.3581 C278.5863,74.2171 266.9763,94.3641 266.9763,117.2231 C266.9763,153.7041 296.5503,183.2781 333.0323,183.2781 C369.5143,183.2781 399.0883,153.7041 399.0883,117.2231 C399.0883,80.7401 369.5143,51.1661 333.0323,51.1661 C332.3413,51.1661 331.2593,51.1451 330.5753,51.1661" id="Stroke-27" stroke="#00D2FF" stroke-width="5.563"></path>
            <path d="M323.1669,66.7561 C319.0629,67.5541 315.1319,68.8401 311.4389,70.5521" id="Stroke-29" stroke="#00D2FF" stroke-width="5.563"></path>
            <path d="M303.0321,75.466 C290.0641,84.8 281.6211,100.025 281.6211,117.223 C281.6211,145.616 304.6381,168.634 333.0321,168.634 C361.4271,168.634 384.4441,145.616 384.4441,117.223 C384.4441,89.132 361.9161,66.304 333.9421,65.819" id="Stroke-31" stroke="#00D2FF" stroke-width="5.563"></path>
            <path d="M128.7694,138.7717 C130.1544,134.8757 131.1744,130.8047 131.7894,126.6027" id="Stroke-33" stroke="#00D2FF" stroke-width="5.563"></path>
            <path d="M124.3261,149.0949 C124.0811,149.5339 123.8301,149.9709 123.5751,150.4039 L121.6571,153.6449 C109.8301,171.1789 89.3561,183.0549 66.6141,183.0549 C30.2561,183.0549 0.7821,153.5799 0.7821,117.2229 C0.7821,80.8649 30.2561,51.3899 66.6141,51.3899 C102.9721,51.3899 132.4471,80.8649 132.4471,117.2229 C132.4471,117.9149 132.4361,118.6049 132.4141,119.2919" id="Stroke-35" stroke="#00D2FF" stroke-width="5.563"></path>
            <path d="M117.997,118.9641 C118.016,118.3861 118.026,117.8051 118.026,117.2231 C118.026,88.8281 95.008,65.8111 66.614,65.8111 C38.22,65.8111 15.203,88.8281 15.203,117.2231 C15.203,145.6161 38.22,168.6341 66.614,168.6341 C84.674,168.6341 100.559,159.3221 109.729,145.2381" id="Stroke-37" stroke="#00D2FF" stroke-width="5.563"></path>
            <path d="M114.244,136.6115 C115.557,133.3875 116.554,130.0005 117.193,126.4895" id="Stroke-39" stroke="#00D2FF" stroke-width="5.563"></path>
            <path d="M317.9579,105.1145 C315.4519,108.3435 313.9599,112.3975 313.9599,116.8005 C313.9599,127.3335 322.4989,135.8725 333.0319,135.8725 C343.5659,135.8725 352.1039,127.3335 352.1039,116.8005 C352.1039,107.6075 345.6019,99.9345 336.9449,98.1295" id="Stroke-41" stroke="#00D2FF" stroke-width="5.563"></path>
            <path d="M277.7567,39.9524 L280.6527,44.9894 C280.7647,45.2394 281.0557,45.3534 281.3067,45.2444 L283.5307,44.2864 C283.7767,44.1814 284.0617,44.2864 284.1777,44.5274 L284.5687,45.3374 C284.6867,45.5814 284.9777,45.6864 285.2237,45.5744 L287.5707,44.5064" id="Stroke-43" stroke="#00D2FF" stroke-width="5.563"></path>
            <g id="Group-47" transform="translate(164.000000, 154.328000)">
                <mask id="mask-2" fill="white">
                    <use xlink:href="#path-1"></use>
                </mask>
                <g id="Clip-46"></g>
                <path d="M12.1449,0.4076 L23.2839,26.2106 C37.1679,25.5156 34.7379,34.0006 34.7379,34.0006 L18.9449,33.7566 L0.7609,0.4076" id="Fill-45" fill="#00D2FF" mask="url(#mask-2)"></path>
            </g>
        </g>
    </g>
</svg>