<?xml version="1.0" encoding="UTF-8"?>
<svg width="101px" height="121px" viewBox="0 0 101 121" version="1.1" xmlns="http://www.w3.org/2000/svg" xmlns:xlink="http://www.w3.org/1999/xlink">
    <!-- Generator: Sketch 51.2 (57519) - http://www.bohemiancoding.com/sketch -->
    <title>license</title>
    <desc>Created with Sketch.</desc>
    <defs></defs>
    <g id="Page-1" stroke="none" stroke-width="1" fill="none" fill-rule="evenodd">
        <g id="license" transform="translate(2.000000, 2.000000)" stroke="#000000">
            <polygon id="Polygon_1_copy_2" stroke-width="4" points="48.024 6 96.038 33.5 96.038 88.5 48.024 116 0.01 88.5 0.01 33.5"></polygon>
            <polyline id="Shape" stroke-width="4" fill="#FFFFFF" points="14.031 94 14.031 0 82.031 0 82.031 94"></polyline>
            <path d="M34.031,16 L60.031,16" id="Shape" stroke-width="4"></path>
            <path d="M28.031,24 L66.031,24" id="Shape_2_copy_6" stroke-width="4"></path>
            <path d="M24.031,42 L72.031,42" id="Shape_2_copy" stroke-width="4"></path>
            <path d="M24.031,74 L46.031,74" id="Shape_2_copy_5" stroke-width="4"></path>
            <path d="M24.031,50 L72.031,50" id="Shape_2_copy_2" stroke-width="4"></path>
            <path d="M24.031,58 L72.031,58" id="Shape_2_copy_3" stroke-width="4"></path>
            <path d="M24.031,66 L72.031,66" id="Shape_2_copy_4" stroke-width="4"></path>
            <g id="Group" transform="translate(44.000000, 80.000000)">
                <circle id="Oval" stroke-width="2" cx="15.031" cy="15" r="15"></circle>
                <circle id="Ellipse_1_copy" stroke-width="4" cx="15.031" cy="15" r="10.375"></circle>
            </g>
        </g>
    </g>
</svg>