<?xml version="1.0" encoding="UTF-8"?>
<svg width="402px" height="186px" viewBox="0 0 402 186" version="1.1" xmlns="http://www.w3.org/2000/svg" xmlns:xlink="http://www.w3.org/1999/xlink">
    <!-- Generator: Sketch 49.3 (51167) - http://www.bohemiancoding.com/sketch -->
    <title>Vector Smart Object.ai</title>
    <desc>Created with Sketch.</desc>
    <defs></defs>
    <g id="Page-1" stroke="none" stroke-width="1" fill="none" fill-rule="evenodd">
        <g id="Vector-Smart-Object.ai" transform="translate(1.000000, -1.000000)" stroke="#FFFFFF" stroke-width="3">
            <path d="M168.9571,29.4054 C222.2951,15.4654 269.8921,21.8484 269.8921,21.8484 C269.8921,22.0874 273.8921,25.6094 273.8921,25.6094 C273.8921,25.6094 277.3551,35.3424 277.4751,41.6704 C277.4751,41.6704 203.5551,23.8544 192.9581,60.9934 C183.9341,92.6224 212.2261,141.4504 220.8201,155.2424 C221.8101,156.8324 220.6221,158.8824 218.7491,158.8094 L176.0541,157.1394 L159.8541,155.1284" id="Stroke-1"></path>
            <path d="M100.9879,19.6374 C100.9879,19.6374 99.2239,20.1124 100.6489,22.6224 C102.0729,25.1324 111.2309,41.2764 127.2389,39.0374 C143.2479,36.7994 150.0319,32.6614 156.8149,35.9174 C163.5979,39.1734 173.7869,43.6954 184.4239,40.9374 C189.9179,39.5124 193.5809,38.0204 192.6319,35.1034 C191.6819,32.1864 188.2899,32.1864 185.3049,32.6614 C182.3209,33.1364 173.8419,32.5944 168.9569,29.4054 C164.0729,26.2174 164.0729,25.0644 161.5639,25.9464 C159.0529,26.8274 127.7819,36.8674 115.9789,29.2694 C104.1759,21.6724 102.4799,19.0274 100.9879,19.6374 Z" id="Stroke-3"></path>
            <path d="M153.8482,34.9426 C153.8482,34.9426 136.8722,44.9376 136.7782,46.3416 C136.6852,47.7466 154.3802,64.3186 156.1592,90.2536 C157.9382,116.1886 158.1252,122.5906 158.1252,122.5906" id="Stroke-5"></path>
            <path d="M77.1759,118.4723 C80.1309,119.7683 86.8759,120.8683 98.3919,120.6823 C109.9079,120.4943 146.8899,120.4943 166.9259,123.7713 C186.9629,127.0483 184.1139,126.5313 188.4609,133.0403 C191.0489,136.9173 195.2959,145.8683 195.2959,145.8683 C195.2959,145.8683 200.8199,155.6983 190.0519,155.6043 C179.2849,155.5113 147.0959,156.8513 115.8999,148.6763 C87.0979,141.1283 59.6259,132.2143 53.2889,126.9983 C52.8239,126.6173 53.1069,125.8613 53.7089,125.8673 C56.1589,125.8903 60.7029,125.7783 60.5669,124.6143 C60.3789,123.0223 60.1969,118.9033 60.5689,118.2473 C60.9409,117.5923 66.1839,113.8473 68.8989,114.3153 C68.8989,114.3153 73.1759,116.7163 77.1759,118.4723 Z" id="Stroke-7"></path>
            <path d="M95.4937,134.5241 C95.4937,134.5241 91.4907,133.5931 91.3047,130.8941 C91.1187,128.1951 98.1927,128.1951 116.9027,128.1951 C135.6117,128.1951 147.9917,128.7531 148.9227,130.8011 C149.8537,132.8491 146.8747,136.8511 144.5477,138.5271 C142.2207,140.2031 139.8937,142.1571 127.6067,140.5751 C115.3197,138.9931 95.4937,134.5241 95.4937,134.5241 Z" id="Stroke-9"></path>
            <path d="M283.2877,11.7531 C283.1557,11.7531 275.9697,18.3221 275.9697,18.3221 C275.9697,18.3221 274.0957,20.7701 276.4537,23.1281 C278.8127,25.4871 281.3487,22.9081 281.3487,22.9081 L288.0497,16.4711 C288.0497,16.4711 289.2397,14.1341 287.3447,12.2381 C285.4487,10.3421 283.2877,11.7531 283.2877,11.7531 Z" id="Stroke-11"></path>
            <path d="M285.9332,11.2487 L290.6072,6.4627 C290.6072,6.4627 291.7092,5.5807 292.7232,6.4627 C293.7372,7.3447 293.2962,8.3137 292.7232,8.9757 C292.1502,9.6367 288.1282,13.3697 288.1282,13.3697" id="Stroke-13"></path>
            <path d="M290.607,11.1799 L300.35,13.0759 C300.35,13.0759 312.475,15.0599 318.692,27.6259 C324.909,40.1909 326.85,44.3419 326.85,44.3419 C326.85,44.3419 333.47,56.8479 334.942,78.7949 C336.414,100.7419 339.356,125.7549 338.988,125.7549 C338.621,125.7549 327.462,125.0189 323.295,117.6629 C319.126,110.3059 278.05,27.6669 278.05,27.6669 L276.454,23.1289" id="Stroke-15"></path>
            <path d="M302.3307,53.049 C302.3307,53.049 301.2467,50.959 303.4917,51.268 C305.7367,51.578 312.3177,53.049 312.3177,53.049 C312.3177,53.049 321.8407,55.139 323.6987,74.107 C325.5567,93.075 326.7177,103.837 323.6987,98.572 C320.6797,93.307 302.3307,53.049 302.3307,53.049 Z" id="Stroke-17"></path>
            <path d="M290.607,6.4626 C290.607,6.4626 281.165,5.2176 279.093,4.9266 C277.023,4.6356 265.252,0.3126 265.143,3.9456 C265.034,7.5786 264.634,7.9056 268.74,8.2696 C272.845,8.6326 286.646,10.5186 286.646,10.5186" id="Stroke-19"></path>
            <path d="M268.4205,21.674 L282.0945,9.907" id="Stroke-21"></path>
            <path d="M274.356,26.9841 L277.211,25.2801" id="Stroke-23"></path>
            <path d="M315.3814,54.9509 C313.8944,55.3169 313.3224,55.5079 311.8774,55.9749 C309.4214,56.7709 307.0294,57.7099 304.7124,58.7829" id="Stroke-25"></path>
            <path d="M295.9508,64.0763 C278.3048,75.9353 266.6948,96.0823 266.6948,118.9413 C266.6948,155.4223 296.2688,184.9963 332.7508,184.9963 C369.2328,184.9963 398.8068,155.4223 398.8068,118.9413 C398.8068,82.4583 369.2328,52.8843 332.7508,52.8843 C332.0598,52.8843 330.9778,52.8633 330.2938,52.8843" id="Stroke-27"></path>
            <path d="M322.8853,68.4743 C318.7813,69.2723 314.8503,70.5583 311.1573,72.2703" id="Stroke-29"></path>
            <path d="M302.7506,77.1843 C289.7826,86.5183 281.3396,101.7433 281.3396,118.9413 C281.3396,147.3343 304.3566,170.3523 332.7506,170.3523 C361.1456,170.3523 384.1626,147.3343 384.1626,118.9413 C384.1626,90.8503 361.6346,68.0223 333.6606,67.5373" id="Stroke-31"></path>
            <path d="M128.4879,140.4899 C129.8729,136.5939 130.8929,132.5229 131.5079,128.3209" id="Stroke-33"></path>
            <path d="M124.0445,150.8132 C123.7995,151.2522 123.5485,151.6892 123.2935,152.1222 L121.3755,155.3632 C109.5485,172.8972 89.0745,184.7732 66.3325,184.7732 C29.9745,184.7732 0.5005,155.2982 0.5005,118.9412 C0.5005,82.5832 29.9745,53.1082 66.3325,53.1082 C102.6905,53.1082 132.1655,82.5832 132.1655,118.9412 C132.1655,119.6332 132.1545,120.3232 132.1325,121.0102" id="Stroke-35"></path>
            <path d="M117.7154,120.6823 C117.7344,120.1043 117.7444,119.5233 117.7444,118.9413 C117.7444,90.5463 94.7264,67.5293 66.3324,67.5293 C37.9384,67.5293 14.9214,90.5463 14.9214,118.9413 C14.9214,147.3343 37.9384,170.3523 66.3324,170.3523 C84.3924,170.3523 100.2774,161.0403 109.4474,146.9563" id="Stroke-37"></path>
            <path d="M113.9625,138.3298 C115.2755,135.1058 116.2725,131.7188 116.9115,128.2078" id="Stroke-39"></path>
            <path d="M317.6764,106.8327 C315.1704,110.0617 313.6784,114.1157 313.6784,118.5187 C313.6784,129.0517 322.2174,137.5907 332.7504,137.5907 C343.2844,137.5907 351.8224,129.0517 351.8224,118.5187 C351.8224,109.3257 345.3204,101.6527 336.6634,99.8477" id="Stroke-41"></path>
            <path d="M277.4752,41.6706 L280.3712,46.7076 C280.4832,46.9576 280.7742,47.0716 281.0252,46.9626 L283.2492,46.0046 C283.4952,45.8996 283.7802,46.0046 283.8962,46.2456 L284.2872,47.0556 C284.4052,47.2996 284.6962,47.4046 284.9422,47.2926 L287.2892,46.2246" id="Stroke-43"></path>
        </g>
    </g>
</svg>