<?xml version="1.0" encoding="UTF-8"?>
<svg width="81px" height="202px" viewBox="0 0 81 202" version="1.1" xmlns="http://www.w3.org/2000/svg" xmlns:xlink="http://www.w3.org/1999/xlink">
    <!-- Generator: Sketch 49.3 (51167) - http://www.bohemiancoding.com/sketch -->
    <title>Group</title>
    <desc>Created with Sketch.</desc>
    <defs></defs>
    <g id="Page-1" stroke="none" stroke-width="1" fill="none" fill-rule="evenodd">
        <g id="Group" transform="translate(40.500000, 101.500000) rotate(-90.000000) translate(-40.500000, -101.500000) translate(-60.500000, 61.500000)" fill="#f6f6f6">
            <path d="M44.9769,27.85262 L15.4489,27.85262 L0.6849,53.4271 L15.4482,79.0008596 L44.9776,79.0008596 L59.7417,53.4271 L44.9769,27.85262 Z M19.8745,35.5183 L40.5513,35.5183 L50.8897,53.4271 L40.5513,71.335895 L19.8745,71.335895 L9.5361,53.4271 L19.8745,35.5183 Z" id="Fill-55"></path>
            <path d="M201.6663,25.69225 L186.9023,0.11848 L157.3743,0.11848 L142.6095,25.69225 L157.3743,51.26672 L186.9023,51.26672 L201.6663,25.69225 Z M161.8006,7.78345 L182.4767,7.78345 L192.8158,25.69225 L182.4767,43.60104 L161.8006,43.60104 L151.4608,25.69225 L161.8006,7.78345 Z" id="Fill-59"></path>
            <path d="M48.2232,26.14082 L62.9865,0.56635 L92.5153,0.56635 L107.2793,26.14082 L92.5153,51.71459 L62.9865,51.71459 L48.2232,26.14082 Z M57.0737,26.14082 L67.4121,44.04962 L88.0896,44.04962 L98.428,26.14082 L88.0896,8.23203 L67.4121,8.23203 L57.0737,26.14082 Z" id="Fill-60"></path>
            <path d="M139.7084,28.64445 L110.1803,28.64445 L95.4156,54.21893 L110.1803,79.7926878 L139.7084,79.7926878 L154.4731,54.21893 L139.7084,28.64445 Z M114.606,36.31013 L135.2828,36.31013 L145.6219,54.21893 L135.2828,72.127006 L114.606,72.127006 L104.2669,54.21893 L114.606,36.31013 Z" id="Fill-61"></path>
        </g>
    </g>
</svg>