<?xml version="1.0" encoding="UTF-8"?>
<svg width="101px" height="116px" viewBox="0 0 101 116" version="1.1" xmlns="http://www.w3.org/2000/svg" xmlns:xlink="http://www.w3.org/1999/xlink">
    <!-- Generator: Sketch 51.2 (57519) - http://www.bohemiancoding.com/sketch -->
    <title>trademark</title>
    <desc>Created with Sketch.</desc>
    <defs></defs>
    <g id="Page-1" stroke="none" stroke-width="1" fill="none" fill-rule="evenodd">
        <g id="trademark" transform="translate(2.000000, 3.000000)">
            <polygon id="Polygon_1_copy_3" stroke="#000000" stroke-width="4" points="48.024 0 96.038 27.5 96.038 82.5 48.024 110 0.01 82.5 0.01 27.5"></polygon>
            <path d="M25.1973246,72.3324561 L25.1973246,39.7889561 L13,39.7889561 L13,36 L41.5469298,36 L41.5469298,39.7889561 L29.3496053,39.7889561 L29.3496053,72.3324561 L25.1973246,72.3324561 Z M49.2286491,72.3324561 L49.2286491,36 L53.3809298,36 L66.6163246,55.8271404 L79.8517193,36 L84.004,36 L84.004,72.3324561 L79.9036228,72.3324561 L79.9036228,42.9031667 L66.6682281,62.3669825 L66.460614,62.3669825 L53.2252193,42.9550702 L53.2252193,72.3324561 L49.2286491,72.3324561 Z" id="TM" fill="#000000"></path>
        </g>
    </g>
</svg>