<?xml version="1.0" encoding="UTF-8"?>
<svg width="96px" height="110px" viewBox="0 0 96 110" version="1.1" xmlns="http://www.w3.org/2000/svg" xmlns:xlink="http://www.w3.org/1999/xlink">
    <!-- Generator: Sketch 51.2 (57519) - http://www.bohemiancoding.com/sketch -->
    <title>sound-off</title>
    <desc>Created with Sketch.</desc>
    <defs></defs>
    <g id="Page-1" stroke="none" stroke-width="1" fill="none" fill-rule="evenodd">
        <g id="sound-off" transform="translate(0.000000, -1.000000)">
            <polygon id="Shape" fill="#000000" fill-rule="nonzero" opacity="0.49" points="48.491 111.01 0.991 83.51 0.991 28.5 48.491 0.99 95.991 28.5 95.991 83.51"></polygon>
            <path d="M55.123,32 C55.235,32.03 55.348,32.05 55.458,32.09 C56.1978891,32.3327417 56.7440626,32.9630898 56.879,33.73 C56.9549206,34.0443496 56.9931893,34.3666124 56.993,34.69 C56.9976667,48.76 56.9976667,62.83 56.993,76.9 C57.0232137,77.6163273 56.8609184,78.3276641 56.523,78.96 C56.2537539,79.4905646 55.7515209,79.864371 55.166,79.97 L55.12,80 L54.531,80 C53.6587545,79.7773269 52.8741387,79.2963097 52.28,78.62 C51.799,78.14 51.301,77.67 50.811,77.2 L45.022,71.62 C42.6886667,69.37 40.3553333,67.12 38.022,64.87 C37.9375043,64.7836406 37.8207696,64.7365117 37.7,64.74 C35.756,64.75 33.813,64.74 31.869,64.74 C31.324,64.74 30.778,64.75 30.232,64.74 C29.3475698,64.7582184 28.5395785,64.2408828 28.186,63.43 C28.1075032,63.2416714 28.0429951,63.0478128 27.993,62.85 L27.993,49.11 C28.0454421,48.9055362 28.1122754,48.7050363 28.193,48.51 C28.5621373,47.6840463 29.3992739,47.1682749 30.303,47.21 C32.774,47.2 35.245,47.21 37.716,47.2 C37.815556,47.2022472 37.9129059,47.1705027 37.992,47.11 C41.2206667,44.01 44.4473333,40.9 47.672,37.78 C49.3353333,36.18 50.998,34.5766667 52.66,32.97 C53.0031952,32.631598 53.411411,32.3662577 53.86,32.19 C54.088,32.11 54.329,32.06 54.56,32 L55.112,32 L55.123,32 Z" id="Shape" fill="#60D2FA"></path>
        </g>
    </g>
</svg>