<?xml version="1.0" encoding="UTF-8"?>
<svg width="82px" height="44px" viewBox="0 0 82 44" version="1.1" xmlns="http://www.w3.org/2000/svg" xmlns:xlink="http://www.w3.org/1999/xlink">
    <!-- Generator: Sketch 49.3 (51167) - http://www.bohemiancoding.com/sketch -->
    <title>Vector Smart Object.ai</title>
    <desc>Created with Sketch.</desc>
    <defs></defs>
    <g id="Page-1" stroke="none" stroke-width="1" fill="none" fill-rule="evenodd" stroke-linecap="round" stroke-linejoin="round">
        <g id="Vector-Smart-Object.ai" transform="translate(2.000000, 2.000000)" stroke="#00D5FF" stroke-width="4">
            <path d="M64.9671599,40 C70.5043971,40 75,35.5191124 75,30 L75,10 C75,4.48088758 70.5043971,0 64.9671599,0 L10.0328401,0 C4.49560287,0 0,4.48088758 0,10 L0,30 C0,35.5191124 4.49560287,40 10.0328401,40 L64.9671599,40 Z" id="Stroke-1"></path>
            <path d="M78,14 L78,22" id="Stroke-3"></path>
            <path d="M8,9 L8,30" id="Stroke-5"></path>
            <path d="M41,7 L41,33" id="Stroke-7"></path>
            <path d="M15,7 L15,33" id="Stroke-9"></path>
            <path d="M47,7 L47,33" id="Stroke-11"></path>
            <path d="M21,7 L21,33" id="Stroke-13"></path>
            <path d="M54,7 L54,33" id="Stroke-15"></path>
            <path d="M28,7 L28,33" id="Stroke-17"></path>
            <path d="M61,7 L61,33" id="Stroke-19"></path>
            <path d="M34,7 L34,33" id="Stroke-21"></path>
            <path d="M68,9 L68,30" id="Stroke-23"></path>
        </g>
    </g>
</svg>