<?xml version="1.0" encoding="UTF-8"?>
<svg width="91px" height="41px" viewBox="0 0 91 41" version="1.1" xmlns="http://www.w3.org/2000/svg" xmlns:xlink="http://www.w3.org/1999/xlink">
    <!-- Generator: Sketch 49.3 (51167) - http://www.bohemiancoding.com/sketch -->
    <title>Vector Smart Object6.ai</title>
    <desc>Created with Sketch.</desc>
    <defs></defs>
    <g id="Page-1" stroke="none" stroke-width="1" fill="none" fill-rule="evenodd">
        <g id="Vector-Smart-Object6.ai" transform="translate(0.000000, -6.000000)" fill="#F39A00">
            <path d="M27.5601,26.3874 L18.275,46.4134 L0.1549,46.4134 L9.44,26.0483 L0.1549,6.1549 L18.275,6.1549 L27.5601,26.3874 Z M5.6509,9.6549 L13.2944,26.0311 L5.5972,42.9134 L16.0398,42.9134 L23.7057,26.3798 L16.0302,9.6549 L5.6509,9.6549 Z" id="Fill-1" fill-opacity="0.2"></path>
            <path d="M48.6231,26.3874 L39.3379,46.4134 L21.2178,46.4134 L30.503,26.0483 L21.2178,6.1549 L39.3379,6.1549 L48.6231,26.3874 Z M26.7139,9.6549 L34.3574,26.0311 L26.6602,42.9134 L37.1028,42.9134 L44.7686,26.3798 L37.0932,9.6549 L26.7139,9.6549 Z" id="Fill-2" fill-opacity="0.45"></path>
            <path d="M69.4339,26.3874 L60.1488,46.4134 L42.0287,46.4134 L51.3138,26.0483 L42.0287,6.1549 L60.1488,6.1549 L69.4339,26.3874 Z M47.5248,9.6549 L55.1683,26.0311 L47.4711,42.9134 L57.9137,42.9134 L65.5795,26.3798 L57.904,9.6549 L47.5248,9.6549 Z" id="Fill-3" fill-opacity="0.75"></path>
            <path d="M90.3936,26.3874 L81.1084,46.4134 L62.9883,46.4134 L72.2735,26.0483 L62.9883,6.1549 L81.1084,6.1549 L90.3936,26.3874 Z M68.4844,9.6549 L76.1279,26.0311 L68.4307,42.9134 L78.8733,42.9134 L86.5392,26.3798 L78.8637,9.6549 L68.4844,9.6549 Z" id="Fill-4"></path>
        </g>
    </g>
</svg>