<?xml version="1.0" encoding="UTF-8"?>
<svg width="73px" height="35px" viewBox="0 0 73 35" version="1.1" xmlns="http://www.w3.org/2000/svg" xmlns:xlink="http://www.w3.org/1999/xlink">
    <!-- Generator: Sketch 49.3 (51167) - http://www.bohemiancoding.com/sketch -->
    <title>Vector Smart Object3.ai</title>
    <desc>Created with Sketch.</desc>
    <defs>
        <polygon id="path-1" points="0 39 75.003 39 75.003 0.538 0 0.538"></polygon>
    </defs>
    <g id="Page-1" stroke="none" stroke-width="1" fill="none" fill-rule="evenodd">
        <g id="Vector-Smart-Object3.ai" transform="translate(-1.000000, -1.000000)">
            <path d="M16.25,28.4602 L59.753,28.4602" id="Stroke-1" stroke="#F39A00" stroke-width="4" stroke-linecap="round" stroke-linejoin="round" stroke-dasharray="2,8"></path>
            <g id="Group-18" transform="translate(0.000000, -0.537800)">
                <path class="wheel-left" d="M14.3813,28.998 C14.3813,31.92 12.0133,34.288 9.0913,34.288 C6.1703,34.288 3.8013,31.92 3.8013,28.998 C3.8013,26.077 6.1703,23.709 9.0913,23.709 C12.0133,23.709 14.3813,26.077 14.3813,28.998 Z" id="Stroke-2" stroke="#F39A00" stroke-width="4" stroke-linecap="round" stroke-linejoin="round"></path>
                <path d="M71.2998,28.998 C71.2998,31.92 68.9318,34.288 66.0098,34.288 C63.0888,34.288 60.7208,31.92 60.7208,28.998 C60.7208,26.077 63.0888,23.709 66.0098,23.709 C68.9318,23.709 71.2998,26.077 71.2998,28.998" id="Fill-4" fill="#F39A00"></path>
                <path d="M71.2998,28.998 C71.2998,31.92 68.9318,34.288 66.0098,34.288 C63.0888,34.288 60.7208,31.92 60.7208,28.998 C60.7208,26.077 63.0888,23.709 66.0098,23.709 C68.9318,23.709 71.2998,26.077 71.2998,28.998 Z" id="Stroke-6" stroke="#F39A00" stroke-width="4" stroke-linecap="round" stroke-linejoin="round"></path>
                <path d="M66.0098,28.2295 L66.0098,2.5955" id="Stroke-8" stroke="#F39A00" stroke-width="2" stroke-linecap="round" stroke-linejoin="round"></path>
                <mask id="mask-2" fill="white">
                    <use xlink:href="#path-1"></use>
                </mask>
                <g id="Clip-11"></g>
                <polygon id="Stroke-10" stroke="#F39A00" stroke-width="2" stroke-linecap="round" stroke-linejoin="round" mask="url(#mask-2)" points="51.206 14.138 66.01 14.138 66.01 2.595 51.206 2.595"></polygon>
                <polygon id="Fill-12" fill="#F39A00" mask="url(#mask-2)" points="55.372 6.813 58.596 6.813 58.596 3.589 55.372 3.589"></polygon>
                <polygon id="Fill-13" fill="#F39A00" mask="url(#mask-2)" points="61.82 6.813 65.044 6.813 65.044 3.589 61.82 3.589"></polygon>
                <polygon id="Fill-14" fill="#F39A00" mask="url(#mask-2)" points="58.595 10.037 61.82 10.037 61.82 6.813 58.595 6.813"></polygon>
                <polygon id="Fill-15" fill="#F39A00" mask="url(#mask-2)" points="55.372 13.261 58.596 13.261 58.596 10.037 55.372 10.037"></polygon>
                <polygon id="Fill-16" fill="#F39A00" mask="url(#mask-2)" points="61.82 13.261 65.044 13.261 65.044 10.037 61.82 10.037"></polygon>
                <polygon id="Fill-17" fill="#F39A00" mask="url(#mask-2)" points="52.148 10.037 55.372 10.037 55.372 6.813 52.148 6.813"></polygon>
            </g>
        </g>
    </g>
</svg>