<?xml version="1.0" encoding="UTF-8"?>
<svg width="80px" height="58px" viewBox="0 0 80 58" version="1.1" xmlns="http://www.w3.org/2000/svg" xmlns:xlink="http://www.w3.org/1999/xlink">
    <!-- Generator: Sketch 49.3 (51167) - http://www.bohemiancoding.com/sketch -->
    <title>speed</title>
    <desc>Created with Sketch.</desc>
    <defs></defs>
    <g id="Page-1" stroke="none" stroke-width="1" fill="none" fill-rule="evenodd">
        <g id="speed" transform="translate(2.000000, 2.000000)" stroke="#00D5FF">
            <path d="M3.2994,53.2663 C1.1794,48.5462 0,43.3137 0,37.8079 C0,16.9411 16.9412,0 37.8079,0 C58.6747,0 75.6159,16.9411 75.6159,37.8079 C75.6159,43.3137 74.4364,48.5462 72.3165,53.2663 L3.2994,53.2663 Z" id="Stroke-1" stroke-width="4"></path>
            <path d="M11.1158,49.2337 C9.4761,45.5827 8.5638,41.5354 8.5638,37.2767 C8.5638,21.1365 21.6677,8.0326 37.8079,8.0326 C53.9482,8.0326 67.0521,21.1365 67.0521,37.2767 C67.0521,41.5354 66.1398,45.5827 64.5,49.2337 L62.8826,53.2663 L13.1788,53.2663 L11.1158,49.2337 Z" id="Stroke-2" stroke-width="2.5"></path>
            <path d="M27.0528,53.2663 C26.3763,51.7602 26,50.0905 26,48.3337 C26,41.6753 31.4058,36.2696 38.0641,36.2696 C44.7225,36.2696 50.1283,41.6753 50.1283,48.3337 C50.1283,50.0905 49.7519,51.7602 49.0755,53.2663 L27.0528,53.2663 Z" id="Stroke-3" stroke-width="4"></path>
            <path d="M29.3350231,40.6863554 L14.2177521,32.0175093" id="Stroke-4" stroke-width="4"></path>
            <path d="M38.0641,6.3811 L38.0641,0" id="Stroke-5" stroke-width="4"></path>
            <path d="M7.816,31.0093 L1.6198,29.4841" id="Stroke-6" stroke-width="4"></path>
            <path d="M18.0333,14.4418 L13.4025,10.0516" id="Stroke-7" stroke-width="4"></path>
            <path d="M57.0651,14.4418 L61.6959,10.0516" id="Stroke-8" stroke-width="4"></path>
            <path d="M67.2329,31.0093 L73.429,29.4841" id="Stroke-9" stroke-width="4"></path>
        </g>
    </g>
</svg>